<?xml version="1.0" standalone="no"?>
<!DOCTYPE svg PUBLIC "-//W3C//DTD SVG 1.1//EN" "http://www.w3.org/Graphics/SVG/1.1/DTD/svg11.dtd" >
<svg xmlns="http://www.w3.org/2000/svg" xmlns:xlink="http://www.w3.org/1999/xlink" version="1.1">
<metadata></metadata>
<defs>
<font id="ethnocentricitalic" horiz-adv-x="2324" >
<font-face units-per-em="2048" ascent="1638" descent="-410" />
<missing-glyph horiz-adv-x="784" />
<glyph horiz-adv-x="0" />
<glyph unicode="&#xd;" horiz-adv-x="784" />
<glyph horiz-adv-x="784" />
<glyph unicode=" "  horiz-adv-x="784" />
<glyph unicode="&#x09;" horiz-adv-x="784" />
<glyph unicode="&#xa0;" horiz-adv-x="784" />
<glyph unicode="!" horiz-adv-x="665" d="M133 143q0 53 22.5 96.5t59.5 73t86 46t102 16.5q86 0 142.5 -45t56.5 -125q0 -53 -22.5 -96t-59.5 -72t-85 -44.5t-101 -15.5q-86 0 -143.5 44t-57.5 122zM256 510l25 403l81 457h424l-81 -457l-117 -403h-332z" />
<glyph unicode="&#x22;" horiz-adv-x="913" d="M276 1370h379l-221 -549h-129zM741 1370h379l-221 -549h-129z" />
<glyph unicode="#" horiz-adv-x="1370" d="M119 326l141 292h199l84 175h-199l143 294h199l137 283h234l-137 -283h157l135 283h234l-137 -283h217l-144 -294h-215l-86 -175h217l-141 -292h-215l-158 -326h-233l158 326h-158l-158 -326h-231l155 326h-198zM692 618h158l84 175h-158z" />
<glyph unicode="$" horiz-adv-x="1386" d="M111 221l237 248h354l23 139h-150q-166 0 -241.5 64.5t-75.5 169.5q0 74 25.5 137t83 109.5t147.5 73t217 26.5h96l33 182h170l-35 -182h494l-240 -252h-297l-24 -133h155q158 0 239 -55.5t81 -165.5q0 -78 -25.5 -144.5t-82 -115t-147.5 -75t-220 -26.5h-103l-39 -221 h-168l39 221h-546zM547 856q0 -53 92 -53h121l22 133h-118q-61 0 -89 -17.5t-28 -62.5zM870 469h125q117 0 117 84q0 31 -22.5 43t-69.5 12h-127z" />
<glyph unicode="%" horiz-adv-x="2062" d="M264 0zM264 977q0 229 135 334.5t373 105.5q193 0 287 -63.5t94 -202.5q0 -115 -36 -199t-101.5 -137.5t-158.5 -79t-210 -25.5q-193 0 -288 64.5t-95 202.5zM371 -78l1374 1524h172l-1360 -1524h-186zM475 1005q0 -72 47 -94.5t156 -22.5q66 0 114.5 9.5t82.5 35 t50.5 71.5t16.5 120q0 72 -47 93.5t-156 21.5q-66 0 -116 -8.5t-82.5 -34t-49 -71.5t-16.5 -120zM1151 236q0 229 135 334.5t373 105.5q193 0 287 -63.5t94 -202.5q0 -115 -36 -199t-101.5 -137.5t-158.5 -79t-210 -25.5q-193 0 -288 64.5t-95 202.5zM1362 264 q0 -72 47 -94.5t156 -22.5q66 0 114.5 9.5t82.5 35t50.5 71.5t16.5 120q0 72 -47 93.5t-156 21.5q-66 0 -116 -8.5t-82.5 -34t-49 -71.5t-16.5 -120z" />
<glyph unicode="&#x26;" horiz-adv-x="1787" d="M147 326q0 80 23 143t61.5 110.5t88 79t104.5 46.5q-57 23 -100 80t-43 151q0 106 44 187t124.5 136.5t193.5 83t250 27.5h573l-336 -356h-317q-51 0 -94 -21.5t-43 -81.5q0 -45 31.5 -61t72.5 -16h1112l-272 -293h-225l-33 -189h469l-332 -352h-858q-139 0 -234.5 24.5 t-152.5 68.5t-82 103.5t-25 129.5zM586 430q0 -78 116 -78h318l33 189h-318q-78 0 -113.5 -29t-35.5 -82z" />
<glyph unicode="'" horiz-adv-x="448" d="M276 1370h379l-221 -549h-129z" />
<glyph unicode="(" horiz-adv-x="718" d="M270 403q0 154 23.5 296.5t74 288t129 301t189.5 335.5h234q-113 -182 -195 -334.5t-136 -293t-80 -275.5t-26 -279q0 -147 26 -334.5t79 -371.5h-232q-45 164 -65.5 341t-20.5 326z" />
<glyph unicode=")" horiz-adv-x="718" d="M39 -264q119 186 202 344t135 297t75.5 268t23.5 262q0 150 -25.5 338.5t-74.5 378.5h231q43 -162 64.5 -338t21.5 -328q0 -143 -21.5 -282t-71.5 -285.5t-131 -307.5t-198 -347h-231z" />
<glyph unicode="*" horiz-adv-x="950" d="M260 1024l55 164l246 -80v262h178v-262l248 82l51 -166l-245 -82l153 -211l-141 -100l-156 209l-153 -211l-140 104l152 209z" />
<glyph unicode="+" horiz-adv-x="1288" d="M188 582l41 229h443l78 442h229l-78 -442h447l-41 -229h-447l-80 -447h-227l80 447h-445z" />
<glyph unicode="," horiz-adv-x="595" d="M63 -197l99 549h434l-297 -549h-236z" />
<glyph unicode="-" horiz-adv-x="950" d="M129 561l254 264h684l-254 -264h-684z" />
<glyph unicode="." horiz-adv-x="632" d="M113 143q0 53 22.5 96.5t59 73t85 46t101.5 16.5q86 0 143.5 -45t57.5 -125q0 -53 -22.5 -96t-59.5 -72t-86 -44.5t-103 -15.5q-86 0 -142 44t-56 122z" />
<glyph unicode="/" horiz-adv-x="966" d="M-14 -78l987 1524h250l-973 -1524h-264z" />
<glyph unicode="0" horiz-adv-x="1921" d="M190 543q0 426 251 638t767 212q383 0 573.5 -136.5t190.5 -427.5q0 -428 -251 -640t-763 -212q-385 0 -576.5 137.5t-191.5 428.5zM612 588q0 -78 23.5 -128t74 -78t127.5 -38t183 -10q254 0 392 113.5t138 336.5q0 78 -23.5 127.5t-73.5 77t-127 37.5t-183 10 q-254 0 -392.5 -112.5t-138.5 -335.5z" />
<glyph unicode="1" horiz-adv-x="913" d="M203 1014l321 356h502l-244 -1370h-424l179 1014h-334z" />
<glyph unicode="2" horiz-adv-x="1914" d="M98 0l80 449q35 188 180.5 281t399.5 93h651q86 0 125 25.5t39 87.5q0 43 -33 60.5t-98 17.5h-1108l336 356h803q274 0 397 -96t123 -258q0 -102 -36 -187.5t-108.5 -146.5t-184.5 -96t-263 -35h-651q-74 0 -114 -22.5t-48 -75.5l-19 -101h1323l-336 -352h-1458z" />
<glyph unicode="3" horiz-adv-x="1865" d="M18 0l332 352h938q78 0 115 29t37 82q0 78 -119 78h-821l272 293h608q53 0 94.5 23.5t41.5 84.5q0 41 -32 56.5t-73 15.5h-1147l336 356h858q223 0 349 -81t126 -240q0 -74 -21.5 -131.5t-56 -100.5t-77.5 -70.5t-88 -41.5q74 -23 122 -86.5t48 -163.5q0 -84 -26 -165 t-96.5 -145.5t-193.5 -104.5t-319 -40h-1207z" />
<glyph unicode="4" horiz-adv-x="1966" d="M119 324q0 47 27.5 96t91.5 96l1130 803q59 41 114.5 57.5t92.5 16.5q80 0 136 -44t56 -145q0 -35 -6 -67l-112 -637h393l-307 -336h-144l-28 -164h-406l29 164h-893q-86 0 -130 47t-44 113zM768 492q41 4 98.5 6t132.5 2h246l37 205q10 61 18.5 102t18.5 76 q-29 -27 -71 -58.5t-101 -72.5l-172 -121q-66 -47 -116 -81t-91 -58z" />
<glyph unicode="5" horiz-adv-x="1841" d="M86 0l334 352h844q86 0 124.5 29t38.5 88q0 82 -129 82h-1044l145 819h1551l-338 -356h-856l-33 -191h666q223 0 337.5 -78.5t114.5 -232.5q0 -111 -37 -205t-116.5 -162.5t-207.5 -106.5t-311 -38h-1083z" />
<glyph unicode="6" horiz-adv-x="1988" d="M195 563q0 184 75.5 334t206.5 254t305 161.5t371 57.5h885l-338 -356h-631q-127 0 -231.5 -51.5t-167.5 -139.5h866q211 0 332 -82t121 -239q0 -158 -80 -259.5t-212 -160.5t-303 -82t-352 -23q-420 0 -633.5 141.5t-213.5 444.5zM623 551q6 -68 41.5 -111t99 -66.5 t155 -31.5t211.5 -8q145 0 235.5 9t139.5 27.5t65.5 44t16.5 58.5q0 78 -131 78h-833z" />
<glyph unicode="7" horiz-adv-x="1730" d="M203 1014l334 356h1183q104 0 154.5 -46t50.5 -112q0 -41 -20.5 -84t-79.5 -98l-1059 -1030h-535l805 756q63 59 109.5 102t81.5 74t60.5 52.5t47.5 39.5q-29 -2 -63.5 -4t-79.5 -3t-105.5 -2t-140.5 -1h-743z" />
<glyph unicode="8" horiz-adv-x="1951" d="M147 326q0 80 23 143t61.5 110.5t88 79t104.5 46.5q-57 23 -100 80t-43 151q0 106 44 187t124.5 136.5t193.5 83t250 27.5h649q223 0 350 -81t127 -240q0 -74 -21.5 -131.5t-56 -100.5t-77.5 -70.5t-88 -41.5q72 -23 120 -86.5t48 -163.5q0 -84 -26 -165t-95.5 -145.5 t-193.5 -104.5t-318 -40h-670q-139 0 -234.5 24.5t-152.5 68.5t-82 103.5t-25 129.5zM586 430q0 -78 116 -78h672q78 0 115 29t37 82q0 78 -119 78h-672q-78 0 -113.5 -29t-35.5 -82zM676 911q0 -45 31.5 -61t72.5 -16h684q53 0 95.5 23.5t42.5 84.5q0 41 -32 56.5t-73 15.5 h-684q-51 0 -94 -21.5t-43 -81.5z" />
<glyph unicode="9" horiz-adv-x="1988" d="M213 0l336 352h610q139 0 242.5 66.5t167.5 159.5q-39 -6 -86 -11.5t-137.5 -10.5t-244 -7t-405.5 -2q-211 0 -332.5 82t-121.5 239q0 158 79.5 259.5t212 161t302.5 82t352 22.5q426 0 640 -139.5t214 -424.5q0 -190 -76 -343.5t-207 -261t-307 -166t-375 -58.5h-864z M643 897q0 -78 133 -78q158 0 271.5 1t196.5 2t138.5 2t96.5 3t70.5 5.5t60.5 7.5q-4 66 -39 104.5t-99.5 59t-158.5 26.5t-213 6q-145 0 -235.5 -9t-139.5 -27.5t-65.5 -44t-16.5 -58.5z" />
<glyph unicode=":" horiz-adv-x="753" d="M166 143q0 53 22.5 96.5t59.5 73t86 46t102 16.5q86 0 142.5 -45t56.5 -125q0 -53 -22.5 -96t-59.5 -72t-85 -44.5t-101 -15.5q-86 0 -143.5 44t-57.5 122zM283 807q0 53 22.5 96t59 73t86 45t102.5 15q86 0 142.5 -44t56.5 -124q0 -53 -21.5 -96t-58.5 -72.5t-86 -45 t-103 -15.5q-86 0 -143 45t-57 123z" />
<glyph unicode=";" horiz-adv-x="632" d="M84 -197l96 549h436l-299 -549h-233zM238 807q0 53 22.5 96t59 73t86 45t102.5 15q88 0 143.5 -44t55.5 -124q0 -53 -21.5 -96t-58.5 -72.5t-86 -45t-103 -15.5q-86 0 -143 45t-57 123z" />
<glyph unicode="&#x3c;" horiz-adv-x="1251" d="M205 672q0 39 23.5 73.5t72.5 55.5l1090 471l-43 -250l-775 -332l658 -330l-45 -249l-924 471q-29 14 -43 38.5t-14 51.5z" />
<glyph unicode="=" horiz-adv-x="1288" d="M139 309l41 230h1118l-41 -230h-1118zM236 852l38 229h1119l-37 -229h-1120z" />
<glyph unicode="&#x3e;" horiz-adv-x="1251" d="M104 111l46 249l772 330l-656 332l43 250l926 -471q29 -16 42 -41t13 -53q0 -35 -23.5 -70t-70.5 -55z" />
<glyph unicode="?" horiz-adv-x="1521" d="M203 1014l338 356h581q274 0 397 -96t123 -258q0 -102 -35.5 -187.5t-108.5 -146.5t-184.5 -96t-262.5 -35h-205q-41 0 -49 -41h-351l7 43q25 129 109.5 199.5t260.5 70.5h236q86 0 125 25.5t39 87.5q0 43 -33 60.5t-98 17.5h-889zM344 143q0 53 22.5 96.5t59.5 73t86 46 t102 16.5q86 0 142.5 -45t56.5 -125q0 -53 -22.5 -96t-59.5 -72t-85 -44.5t-101 -15.5q-86 0 -143.5 44t-57.5 122z" />
<glyph unicode="@" horiz-adv-x="1867" d="M195 575q0 168 76.5 313.5t208.5 252t306.5 168t370.5 61.5h825l-176 -1001h-874q-66 0 -118 20.5t-88 56t-54.5 84t-18.5 103.5q0 74 29 139.5t80 114.5t121.5 77.5t156.5 28.5h451l-76 -432h152l102 582h-553q-131 0 -247.5 -38t-205 -105.5t-139.5 -163t-51 -209.5 q0 -88 35 -161t98.5 -126t152.5 -83t197 -30h615l135 -227h-791q-164 0 -296 41t-227 115.5t-146 181t-51 237.5zM913 670q0 -49 34 -79t93 -30h138l45 256h-138q-72 0 -122 -43t-50 -104z" />
<glyph unicode="A" d="M23 0l1097 1239q53 59 127 106.5t174 47.5q96 0 152.5 -44t91.5 -110l637 -1239h-1593l319 352h342h129t115 -4q-23 37 -51.5 93.5t-53.5 105.5l-182 362l-803 -909h-501z" />
<glyph unicode="B" horiz-adv-x="1974" d="M129 0l147 834h1213q53 0 94 23.5t41 84.5q0 41 -31.5 56.5t-72.5 15.5h-1213l352 356h908q223 0 349 -81t126 -240q0 -74 -21.5 -131.5t-56.5 -100.5t-78 -70.5t-88 -41.5q74 -23 122 -86.5t48 -163.5q0 -84 -25.5 -165t-96 -145.5t-193.5 -104.5t-320 -40h-1204z M616 352h781q78 0 114.5 29t36.5 82q0 78 -118 78h-781z" />
<glyph unicode="C" horiz-adv-x="1890" d="M199 604q0 168 75.5 309.5t204.5 242.5t303 157.5t371 56.5h961l-336 -356h-688q-94 0 -179.5 -29t-149 -80t-100 -119.5t-36.5 -150.5q0 -63 25.5 -115.5t71.5 -89.5t109.5 -57.5t141.5 -20.5h960l-334 -352h-688q-160 0 -292 46t-225 127t-144 191.5t-51 239.5z" />
<glyph unicode="D" horiz-adv-x="1957" d="M129 0l152 854h424l-89 -502h492q98 0 183 27t147.5 76t99.5 117.5t37 150.5q0 63 -25.5 116.5t-71.5 92.5t-110.5 60.5t-142.5 21.5h-918l334 356h647q162 0 294 -43t226.5 -120t145.5 -183.5t51 -235.5q0 -166 -76 -309t-207 -249.5t-305 -168t-370 -61.5h-918z" />
<glyph unicode="E" horiz-adv-x="1736" d="M129 0l244 1370h1585l-338 -356h-887l-28 -164h1083l-295 -311h-844l-33 -187h1168l-336 -352h-1319z" />
<glyph unicode="F" horiz-adv-x="1679" d="M129 0l244 1370h1534l-336 -356h-838l-31 -178h1033l-316 -334h-776l-88 -502h-426z" />
<glyph unicode="G" horiz-adv-x="1966" d="M199 604q0 168 75.5 309.5t204.5 242.5t303 157.5t371 56.5h981l-338 -356h-706q-94 0 -179.5 -29t-149 -80t-101 -120.5t-37.5 -151.5q0 -129 95 -205t255 -76h520l35 199h-711l309 305h877l-152 -856h-940q-160 0 -292 46t-225 127t-144 191.5t-51 239.5z" />
<glyph unicode="H" horiz-adv-x="1923" d="M129 0l244 1370h424l-88 -485h817l86 485h424l-244 -1370h-422l94 528h-817l-92 -528h-426z" />
<glyph unicode="I" horiz-adv-x="694" d="M135 0l244 1370h422l-242 -1370h-424z" />
<glyph unicode="J" horiz-adv-x="1499" d="M23 0l337 352h236q123 0 208 14.5t141 47t87 84t43 125.5l133 747h424l-133 -747q-106 -623 -964 -623h-512z" />
<glyph unicode="K" horiz-adv-x="1867" d="M129 0l244 1370h424l-56 -317q-12 -63 -26.5 -125t-24.5 -115q47 37 115.5 91t175.5 132l455 334h614l-592 -393q-78 -51 -137 -90t-105.5 -67.5t-83 -51.5t-73.5 -43q51 -41 123.5 -102.5t187.5 -169.5l488 -453h-641l-351 360q-90 92 -138 143.5t-75 86.5l-28 -197 l-70 -393h-426z" />
<glyph unicode="L" horiz-adv-x="1626" d="M129 0l244 1370h422l-181 -1018h1063l-338 -352h-1210z" />
<glyph unicode="M" horiz-adv-x="2578" d="M31 0l565 1204q47 96 121 142.5t153 46.5q82 0 131.5 -39t75.5 -107l150 -387q53 -141 90 -240.5t59 -168.5q23 37 49.5 74.5t60.5 85.5t78 107.5t103 139.5l289 389q47 66 109.5 106t148.5 40q80 0 136 -46.5t67 -142.5l135 -1204h-422l-47 477q-10 117 -16.5 205 t-8.5 172q-23 -37 -48 -75t-57 -84t-70 -99t-85 -121l-244 -344q-37 -51 -68.5 -81t-64 -46t-65.5 -21.5t-72 -5.5t-70.5 5.5t-58.5 21.5t-48.5 46t-39.5 81l-123 346q-25 70 -44 125t-33.5 99t-26 81t-21.5 72q-31 -76 -71.5 -171t-88.5 -206l-213 -477h-415z" />
<glyph unicode="N" horiz-adv-x="1871" d="M123 0l199 1137q12 68 38.5 117t64.5 79.5t83 45t92 14.5q39 0 78 -13.5t80 -60.5l706 -754l144 805h385l-203 -1134q-12 -68 -40 -117t-64.5 -81t-82 -46.5t-90.5 -14.5q-43 0 -78.5 13.5t-78.5 60.5l-707 754l-141 -805h-385z" />
<glyph unicode="O" horiz-adv-x="2174" d="M193 559q0 422 282.5 628t857.5 206q446 0 668.5 -140.5t222.5 -439.5q0 -422 -282.5 -629t-858.5 -207q-446 0 -668 141.5t-222 440.5zM618 600q0 -84 31 -135t94.5 -81t163 -40t238.5 -10q207 0 335 18.5t198.5 67.5t95 134t24.5 216q0 82 -29.5 134t-94 82t-165 40 t-239.5 10q-207 0 -334 -18.5t-197.5 -67.5t-95.5 -134t-25 -216z" />
<glyph unicode="P" horiz-adv-x="2023" d="M125 0l123 700h1179q111 0 174.5 51.5t63.5 131.5q0 59 -46 95t-136 36h-1180l344 356h860q143 0 253 -31.5t184.5 -90t113.5 -139.5t39 -179q0 -127 -54 -233.5t-153.5 -183.5t-243 -120t-321.5 -43h-717l-61 -350h-422z" />
<glyph unicode="Q" horiz-adv-x="2174" d="M195 578q0 408 281.5 611.5t856.5 203.5q446 0 668.5 -140.5t222.5 -439.5q0 -127 -31.5 -210t-81.5 -146h-454q78 53 109.5 134t31.5 179q0 82 -29.5 134t-94 82t-165 40t-239.5 10q-207 0 -334 -18.5t-197.5 -65.5t-94 -129t-23.5 -209q0 -147 94 -204.5t260 -57.5h90 q41 0 84 -1t80 -5q-29 20 -65 49t-64 58l-152 135h553l613 -588h-1201q-158 0 -288.5 37t-227 110.5t-149.5 181t-53 249.5z" />
<glyph unicode="R" horiz-adv-x="2095" d="M125 0l123 700h1192q53 0 101 12.5t84 35t57.5 56.5t21.5 75q0 68 -55.5 101.5t-153.5 33.5h-1192l340 356h881q106 0 217.5 -18.5t203 -66.5t148.5 -128t57 -203q0 -92 -31.5 -176t-90 -151.5t-140.5 -114.5t-180 -66q29 -27 64.5 -67.5t93.5 -112.5l207 -266h-568 l-241 362h-652l-63 -362h-424z" />
<glyph unicode="S" horiz-adv-x="1972" d="M49 0l334 352h1038q86 0 125 29t39 88q0 82 -129 82h-747q-233 0 -342 90t-109 240q0 104 37 193t118 155.5t208 103.5t307 37h1190l-336 -356h-951q-86 0 -124.5 -25.5t-38.5 -87.5q0 -78 131 -78h745q223 0 339 -78.5t116 -232.5q0 -111 -37 -205t-118 -162.5 t-209 -106.5t-310 -38h-1276z" />
<glyph unicode="T" horiz-adv-x="1830" d="M178 1014l340 356h1557l-340 -356h-488l-180 -1014h-424l178 1014h-643z" />
<glyph unicode="U" horiz-adv-x="2019" d="M203 469q0 61 12 129l137 772h424l-139 -772q-6 -43 -6 -76q0 -53 22.5 -90t77.5 -59.5t147.5 -32.5t233.5 -10q123 0 208 14t140.5 47t85 84t41.5 123l137 772h426l-137 -772q-111 -621 -962 -621q-440 0 -644 123t-204 369z" />
<glyph unicode="V" d="M266 1370h518l457 -909l803 909h502l-1098 -1239q-53 -59 -127 -106.5t-174 -47.5q-96 0 -152.5 44.5t-91.5 109.5z" />
<glyph unicode="W" horiz-adv-x="2580" d="M270 1370h422l45 -477q10 -117 16.5 -205t10.5 -172q45 70 103.5 158t154.5 221l246 344q37 49 68.5 80t63.5 47t64.5 21.5t71.5 5.5t71.5 -5.5t58.5 -21.5t47.5 -46t39.5 -81l123 -346q25 -72 43 -126t33.5 -98t28 -81t22.5 -72q29 82 66.5 172t91.5 205l215 477h415 l-569 -1204q-45 -96 -116.5 -142.5t-153.5 -46.5t-131 39t-76 107l-152 387q-31 80 -54 140.5t-39.5 108.5t-30 87t-23.5 76q-23 -37 -49.5 -76t-60 -87t-78 -107.5t-103.5 -139.5l-289 -389q-47 -66 -110.5 -106t-147.5 -40q-80 0 -137 46.5t-68 142.5z" />
<glyph unicode="X" horiz-adv-x="2129" d="M35 0l518 412q92 72 152.5 120t101.5 78.5t66.5 49t48.5 32.5q-16 14 -35 31.5t-48.5 49.5t-73.5 80t-112 124l-348 393h586l360 -426l516 426h549l-501 -395q-84 -66 -140.5 -110t-96.5 -73.5t-66.5 -49t-47.5 -33.5q14 -12 42 -40t64 -68t80 -88t91 -101l366 -412h-598 l-387 453l-561 -453h-526z" />
<glyph unicode="Y" horiz-adv-x="2105" d="M258 1370h545l262 -381q12 -18 33.5 -48t44 -62.5t41 -61.5t26.5 -43q29 29 75 78t136 139l379 379h533l-977 -917l-78 -453h-426l80 455z" />
<glyph unicode="Z" horiz-adv-x="1841" d="M100 145q0 57 35 106.5t92 90.5l568 393q98 68 168.5 116t121 82t83 55.5t55.5 33.5q-29 -2 -68 -4t-95 -3t-132 -1h-178h-549l334 356h1263q72 0 121 -37t49 -108q0 -57 -33.5 -106.5t-91.5 -88.5l-577 -401q-96 -68 -166 -115t-119 -81t-82 -54.5t-55 -34.5q25 2 83 3 t135 2t163 2t166 1h495l-317 -352h-1299q-72 0 -121 38t-49 107z" />
<glyph unicode="[" horiz-adv-x="651" d="M117 -264l334 1888h391l-45 -248h-146l-245 -1394h145l-43 -246h-391z" />
<glyph unicode="\" horiz-adv-x="966" d="M256 1446h248l450 -1524h-266z" />
<glyph unicode="]" horiz-adv-x="653" d="M51 -264l41 246h146l247 1394h-145l43 248h393l-334 -1888h-391z" />
<glyph unicode="^" horiz-adv-x="1173" d="M199 606l463 764h331l193 -764h-277l-121 531l-305 -531h-284z" />
<glyph unicode="_" horiz-adv-x="1380" d="M-49 -270l33 184h1390l-33 -184h-1390z" />
<glyph unicode="`" horiz-adv-x="804" d="M309 1544l41 232l586 -142l-29 -170z" />
<glyph unicode="a" d="M23 0l1097 1239q53 59 127 106.5t174 47.5q96 0 152.5 -44t91.5 -110l637 -1239h-1593l319 352h342h129t115 -4q-23 37 -51.5 93.5t-53.5 105.5l-182 362l-803 -909h-501zM23 0z" />
<glyph unicode="b" horiz-adv-x="1974" d="M129 0l147 834h1213q53 0 94 23.5t41 84.5q0 41 -31.5 56.5t-72.5 15.5h-1213l352 356h908q223 0 349 -81t126 -240q0 -74 -21.5 -131.5t-56.5 -100.5t-78 -70.5t-88 -41.5q74 -23 122 -86.5t48 -163.5q0 -84 -25.5 -165t-96 -145.5t-193.5 -104.5t-320 -40h-1204zM129 0 zM616 352h781q78 0 114.5 29t36.5 82q0 78 -118 78h-781z" />
<glyph unicode="c" horiz-adv-x="1890" d="M199 0zM199 604q0 168 75.5 309.5t204.5 242.5t303 157.5t371 56.5h961l-336 -356h-688q-94 0 -179.5 -29t-149 -80t-100 -119.5t-36.5 -150.5q0 -63 25.5 -115.5t71.5 -89.5t109.5 -57.5t141.5 -20.5h960l-334 -352h-688q-160 0 -292 46t-225 127t-144 191.5t-51 239.5z " />
<glyph unicode="d" horiz-adv-x="1957" d="M129 0l152 854h424l-89 -502h492q98 0 183 27t147.5 76t99.5 117.5t37 150.5q0 63 -25.5 116.5t-71.5 92.5t-110.5 60.5t-142.5 21.5h-918l334 356h647q162 0 294 -43t226.5 -120t145.5 -183.5t51 -235.5q0 -166 -76 -309t-207 -249.5t-305 -168t-370 -61.5h-918zM129 0z " />
<glyph unicode="e" horiz-adv-x="1736" d="M129 0l244 1370h1585l-338 -356h-887l-28 -164h1083l-295 -311h-844l-33 -187h1168l-336 -352h-1319zM129 0z" />
<glyph unicode="f" horiz-adv-x="1679" d="M129 0l244 1370h1534l-336 -356h-838l-31 -178h1033l-316 -334h-776l-88 -502h-426zM129 0z" />
<glyph unicode="g" horiz-adv-x="1966" d="M199 0zM199 604q0 168 75.5 309.5t204.5 242.5t303 157.5t371 56.5h981l-338 -356h-706q-94 0 -179.5 -29t-149 -80t-101 -120.5t-37.5 -151.5q0 -129 95 -205t255 -76h520l35 199h-711l309 305h877l-152 -856h-940q-160 0 -292 46t-225 127t-144 191.5t-51 239.5z" />
<glyph unicode="h" horiz-adv-x="1923" d="M129 0l244 1370h424l-88 -485h817l86 485h424l-244 -1370h-422l94 528h-817l-92 -528h-426zM129 0z" />
<glyph unicode="i" horiz-adv-x="694" d="M135 0l244 1370h422l-242 -1370h-424zM135 0z" />
<glyph unicode="j" horiz-adv-x="1499" d="M23 0l337 352h236q123 0 208 14.5t141 47t87 84t43 125.5l133 747h424l-133 -747q-106 -623 -964 -623h-512zM23 0z" />
<glyph unicode="k" horiz-adv-x="1867" d="M129 0l244 1370h424l-56 -317q-12 -63 -26.5 -125t-24.5 -115q47 37 115.5 91t175.5 132l455 334h614l-592 -393q-78 -51 -137 -90t-105.5 -67.5t-83 -51.5t-73.5 -43q51 -41 123.5 -102.5t187.5 -169.5l488 -453h-641l-351 360q-90 92 -138 143.5t-75 86.5l-28 -197 l-70 -393h-426zM129 0z" />
<glyph unicode="l" horiz-adv-x="1626" d="M129 0l244 1370h422l-181 -1018h1063l-338 -352h-1210zM129 0z" />
<glyph unicode="m" horiz-adv-x="2578" d="M31 0l565 1204q47 96 121 142.5t153 46.5q82 0 131.5 -39t75.5 -107l150 -387q53 -141 90 -240.5t59 -168.5q23 37 49.5 74.5t60.5 85.5t78 107.5t103 139.5l289 389q47 66 109.5 106t148.5 40q80 0 136 -46.5t67 -142.5l135 -1204h-422l-47 477q-10 117 -16.5 205 t-8.5 172q-23 -37 -48 -75t-57 -84t-70 -99t-85 -121l-244 -344q-37 -51 -68.5 -81t-64 -46t-65.5 -21.5t-72 -5.5t-70.5 5.5t-58.5 21.5t-48.5 46t-39.5 81l-123 346q-25 70 -44 125t-33.5 99t-26 81t-21.5 72q-31 -76 -71.5 -171t-88.5 -206l-213 -477h-415zM31 0z" />
<glyph unicode="n" horiz-adv-x="1871" d="M123 0l199 1137q12 68 38.5 117t64.5 79.5t83 45t92 14.5q39 0 78 -13.5t80 -60.5l706 -754l144 805h385l-203 -1134q-12 -68 -40 -117t-64.5 -81t-82 -46.5t-90.5 -14.5q-43 0 -78.5 13.5t-78.5 60.5l-707 754l-141 -805h-385zM123 0z" />
<glyph unicode="o" horiz-adv-x="2174" d="M193 0zM193 559q0 422 282.5 628t857.5 206q446 0 668.5 -140.5t222.5 -439.5q0 -422 -282.5 -629t-858.5 -207q-446 0 -668 141.5t-222 440.5zM618 600q0 -84 31 -135t94.5 -81t163 -40t238.5 -10q207 0 335 18.5t198.5 67.5t95 134t24.5 216q0 82 -29.5 134t-94 82 t-165 40t-239.5 10q-207 0 -334 -18.5t-197.5 -67.5t-95.5 -134t-25 -216z" />
<glyph unicode="p" horiz-adv-x="2023" d="M125 0l123 700h1179q111 0 174.5 51.5t63.5 131.5q0 59 -46 95t-136 36h-1180l344 356h860q143 0 253 -31.5t184.5 -90t113.5 -139.5t39 -179q0 -127 -54 -233.5t-153.5 -183.5t-243 -120t-321.5 -43h-717l-61 -350h-422zM125 0z" />
<glyph unicode="q" horiz-adv-x="2174" d="M195 0zM195 578q0 408 281.5 611.5t856.5 203.5q446 0 668.5 -140.5t222.5 -439.5q0 -127 -31.5 -210t-81.5 -146h-454q78 53 109.5 134t31.5 179q0 82 -29.5 134t-94 82t-165 40t-239.5 10q-207 0 -334 -18.5t-197.5 -65.5t-94 -129t-23.5 -209q0 -147 94 -204.5 t260 -57.5h90q41 0 84 -1t80 -5q-29 20 -65 49t-64 58l-152 135h553l613 -588h-1201q-158 0 -288.5 37t-227 110.5t-149.5 181t-53 249.5z" />
<glyph unicode="r" horiz-adv-x="2095" d="M125 0l123 700h1192q53 0 101 12.5t84 35t57.5 56.5t21.5 75q0 68 -55.5 101.5t-153.5 33.5h-1192l340 356h881q106 0 217.5 -18.5t203 -66.5t148.5 -128t57 -203q0 -92 -31.5 -176t-90 -151.5t-140.5 -114.5t-180 -66q29 -27 64.5 -67.5t93.5 -112.5l207 -266h-568 l-241 362h-652l-63 -362h-424zM125 0z" />
<glyph unicode="s" horiz-adv-x="1972" d="M49 0l334 352h1038q86 0 125 29t39 88q0 82 -129 82h-747q-233 0 -342 90t-109 240q0 104 37 193t118 155.5t208 103.5t307 37h1190l-336 -356h-951q-86 0 -124.5 -25.5t-38.5 -87.5q0 -78 131 -78h745q223 0 339 -78.5t116 -232.5q0 -111 -37 -205t-118 -162.5 t-209 -106.5t-310 -38h-1276zM49 0z" />
<glyph unicode="t" horiz-adv-x="1830" d="M178 0zM178 1014l340 356h1557l-340 -356h-488l-180 -1014h-424l178 1014h-643z" />
<glyph unicode="u" horiz-adv-x="2019" d="M203 0zM203 469q0 61 12 129l137 772h424l-139 -772q-6 -43 -6 -76q0 -53 22.5 -90t77.5 -59.5t147.5 -32.5t233.5 -10q123 0 208 14t140.5 47t85 84t41.5 123l137 772h426l-137 -772q-111 -621 -962 -621q-440 0 -644 123t-204 369z" />
<glyph unicode="v" d="M266 0zM266 1370h518l457 -909l803 909h502l-1098 -1239q-53 -59 -127 -106.5t-174 -47.5q-96 0 -152.5 44.5t-91.5 109.5z" />
<glyph unicode="w" horiz-adv-x="2580" d="M270 0zM270 1370h422l45 -477q10 -117 16.5 -205t10.5 -172q45 70 103.5 158t154.5 221l246 344q37 49 68.5 80t63.5 47t64.5 21.5t71.5 5.5t71.5 -5.5t58.5 -21.5t47.5 -46t39.5 -81l123 -346q25 -72 43 -126t33.5 -98t28 -81t22.5 -72q29 82 66.5 172t91.5 205l215 477 h415l-569 -1204q-45 -96 -116.5 -142.5t-153.5 -46.5t-131 39t-76 107l-152 387q-31 80 -54 140.5t-39.5 108.5t-30 87t-23.5 76q-23 -37 -49.5 -76t-60 -87t-78 -107.5t-103.5 -139.5l-289 -389q-47 -66 -110.5 -106t-147.5 -40q-80 0 -137 46.5t-68 142.5z" />
<glyph unicode="x" horiz-adv-x="2129" d="M35 0l518 412q92 72 152.5 120t101.5 78.5t66.5 49t48.5 32.5q-16 14 -35 31.5t-48.5 49.5t-73.5 80t-112 124l-348 393h586l360 -426l516 426h549l-501 -395q-84 -66 -140.5 -110t-96.5 -73.5t-66.5 -49t-47.5 -33.5q14 -12 42 -40t64 -68t80 -88t91 -101l366 -412h-598 l-387 453l-561 -453h-526zM35 0z" />
<glyph unicode="y" horiz-adv-x="2105" d="M258 0zM258 1370h545l262 -381q12 -18 33.5 -48t44 -62.5t41 -61.5t26.5 -43q29 29 75 78t136 139l379 379h533l-977 -917l-78 -453h-426l80 455z" />
<glyph unicode="z" horiz-adv-x="1841" d="M100 0zM100 145q0 57 35 106.5t92 90.5l568 393q98 68 168.5 116t121 82t83 55.5t55.5 33.5q-29 -2 -68 -4t-95 -3t-132 -1h-178h-549l334 356h1263q72 0 121 -37t49 -108q0 -57 -33.5 -106.5t-91.5 -88.5l-577 -401q-96 -68 -166 -115t-119 -81t-82 -54.5t-55 -34.5 q25 2 83 3t135 2t163 2t166 1h495l-317 -352h-1299q-72 0 -121 38t-49 107z" />
<glyph unicode="{" horiz-adv-x="739" d="M244 565l39 217q125 2 135 72l92 516q43 254 278 254h138l-41 -248q-66 0 -97.5 -11t-35.5 -34l-82 -457q-27 -156 -150 -200q86 -31 86 -144q0 -27 -6 -57l-78 -446q0 -23 24.5 -34t90.5 -11l-41 -246h-139q-104 0 -151.5 48t-47.5 142q0 31 8 62l88 504q0 4 1 7t1 7 q0 55 -112 59z" />
<glyph unicode="|" horiz-adv-x="612" d="M156 -203l309 1749h227l-311 -1749h-225z" />
<glyph unicode="}" horiz-adv-x="739" d="M51 -264l41 246q123 0 133 45l80 446q29 162 150 201q-86 37 -86 141q0 25 6 59l80 457q0 23 -26 34t-89 11l41 248h139q197 0 197 -178q0 -16 -2 -38t-6 -38l-91 -516q0 -4 -1 -5t-1 -5q0 -57 115 -62l-39 -217q-129 -4 -137 -73l-90 -504q-23 -127 -94.5 -189.5 t-182.5 -62.5h-137z" />
<glyph unicode="~" horiz-adv-x="1161" d="M160 436l57 336q94 82 169 108.5t138 26.5q55 0 105.5 -23.5t100.5 -51t103.5 -51t112.5 -23.5t128 35.5t155 128.5l-60 -336q-92 -78 -166.5 -105.5t-140.5 -27.5q-57 0 -109.5 23.5t-102.5 52t-101 52t-107 23.5q-59 0 -128.5 -38t-153.5 -130z" />
<glyph unicode="&#xa1;" horiz-adv-x="665" d="M129 0zM129 0l81 457l117 403h332l-25 -403l-81 -457h-424zM313 1165q0 53 22.5 96t59.5 72t85 44.5t101 15.5q86 0 143.5 -44t57.5 -122q0 -53 -22.5 -96.5t-59.5 -73t-86 -46t-102 -16.5q-86 0 -142.5 45t-56.5 125z" />
<glyph unicode="&#xa2;" horiz-adv-x="1349" d="M221 649q0 119 53.5 217.5t144.5 170t213 111.5t261 40l33 182h170l-33 -182h430l-238 -252h-237l-82 -465h430l-236 -248h-239l-39 -223h-168l39 223q-113 0 -205 33t-158.5 89t-102.5 134t-36 170zM524 670q0 -90 66.5 -144.5t177.5 -54.5l82 465q-68 0 -126 -20.5 t-103.5 -55.5t-71 -84t-25.5 -106z" />
<glyph unicode="&#xa3;" horiz-adv-x="1665" d="M63 0l336 352h80l37 209h-418l254 264h209l23 119q18 96 65 175t129 134.5t199 86t274 30.5h639l-338 -356h-397q-76 0 -113.5 -20.5t-48.5 -73.5l-16 -95h444l-254 -264h-237l-37 -209h819l-338 -352h-1311z" />
<glyph unicode="&#xa5;" horiz-adv-x="2105" d="M256 1370h539l262 -381q12 -18 33.5 -48t44 -62.5t42 -61.5t27.5 -43q27 29 74 78t137 139l377 379h539l-699 -657h330l-41 -230h-532l-33 -30l-17 -99h559l-40 -229h-560l-20 -125h-426l20 125h-542l41 229h542l19 101l-23 28h-516l41 230h307z" />
<glyph unicode="&#xa6;" horiz-adv-x="612" d="M156 -203l116 674h228l-119 -674h-225zM350 911l113 635h227l-112 -635h-228z" />
<glyph unicode="&#xa8;" horiz-adv-x="880" d="M362 1632q0 68 52.5 109t122.5 41q57 0 93 -29t36 -82q0 -72 -52.5 -109.5t-121.5 -37.5q-57 0 -93.5 27.5t-36.5 80.5zM795 1632q0 68 52 109t122 41q57 0 93 -29t36 -82q0 -72 -52.5 -109.5t-121.5 -37.5q-55 0 -92 27.5t-37 80.5z" />
<glyph unicode="&#xa9;" horiz-adv-x="1593" d="M215 686q0 147 55.5 276.5t151.5 225.5t225 151.5t277 55.5q147 0 276 -55.5t226.5 -151.5t152.5 -225t55 -277q0 -147 -55 -276t-152.5 -225.5t-226.5 -152t-276 -55.5t-276.5 55.5t-225.5 152t-151.5 225.5t-55.5 276zM301 684q0 -131 49 -244.5t133 -198.5t199 -134.5 t246 -49.5t245.5 49.5t199.5 134.5t134 198.5t49 244.5q0 129 -49 244.5t-134 202t-199.5 136.5t-245.5 50t-246 -50t-199 -136.5t-133 -202t-49 -244.5zM563 690q0 72 26.5 131.5t74 101.5t112 65.5t142.5 23.5h239l-86 -113h-153q-96 0 -160 -59.5t-64 -157.5 q0 -96 62.5 -155.5t161.5 -59.5h239l-86 -111h-153q-78 0 -142.5 26t-112 70t-74 105t-26.5 133z" />
<glyph unicode="&#xaa;" horiz-adv-x="1392" d="M172 582l604 680q29 35 69 60.5t95 25.5q53 0 84 -25t49 -61l352 -680h-876l176 194h188h71t65 -2q-14 20 -29.5 50t-28.5 59l-102 198l-440 -499h-277z" />
<glyph unicode="&#xab;" horiz-adv-x="933" d="M160 565l33 187l403 256l-35 -195l-260 -147l207 -152l-35 -190zM594 565l33 187l401 256l-35 -195l-258 -147l205 -152l-35 -190z" />
<glyph unicode="&#xad;" horiz-adv-x="950" d="M129 561l254 264h684l-254 -264h-684z" />
<glyph unicode="&#xae;" horiz-adv-x="1030" d="M262 991q0 80 32 153t88 128t134 88t172 33t173 -32t136.5 -86t90 -128t32.5 -156q0 -80 -32.5 -152.5t-91 -128t-137.5 -88t-171 -32.5q-94 0 -172 32.5t-134 88t-88 128t-32 152.5zM342 991q0 -61 23.5 -119.5t68.5 -104.5t108.5 -74.5t143.5 -28.5q74 0 140.5 25.5 t116.5 69.5t80 104.5t30 127.5q0 59 -28 116.5t-77 103.5t-116.5 75t-145.5 29q-80 0 -143.5 -29t-108.5 -75t-68.5 -103t-23.5 -117zM526 846v155h191q23 0 39 9.5t16 25.5q0 20 -15.5 28.5t-39.5 8.5h-191l64 80h119q27 0 55.5 -5t52 -17.5t38.5 -34t15 -54.5 q0 -37 -21.5 -62.5t-60.5 -33.5q8 -6 17.5 -15t25.5 -26l58 -59h-127l-70 80h-69v-80h-97z" />
<glyph unicode="&#xaf;" horiz-adv-x="804" d="M367 1536l30 170h611l-31 -170h-610z" />
<glyph unicode="&#xb0;" horiz-adv-x="808" d="M291 1079q0 314 311 314q315 0 316 -314q0 -313 -316 -313q-311 0 -311 313zM455 1079q0 -147 147 -147q150 0 150 143q0 152 -150 152q-147 0 -147 -148z" />
<glyph unicode="&#xb1;" horiz-adv-x="1288" d="M45 0zM45 -231l41 229h1119l-41 -229h-1119zM188 582l41 229h443l78 442h229l-78 -442h447l-41 -229h-447l-80 -447h-227l80 447h-445z" />
<glyph unicode="&#xb2;" horiz-adv-x="1015" d="M203 723l39 221q16 96 89.5 142t200.5 46h326q37 0 59.5 13.5t22.5 46.5q0 37 -66 36h-552l165 179h402q141 0 201.5 -47.5t60.5 -124.5q0 -104 -75 -171t-222 -67h-326q-74 0 -82 -51l-8 -47h662l-168 -176h-729zM203 723z" />
<glyph unicode="&#xb3;" horiz-adv-x="991" d="M164 723l164 176h469q74 0 73 55q0 37 -57 37h-412l140 147h303q23 0 44 12.5t21 43.5q0 20 -15 27t-34 7h-573l166 179h428q113 0 176 -39t63 -117q0 -37 -11 -67.5t-29.5 -52t-40 -36t-40.5 -20.5q37 -12 59.5 -43t22.5 -78q0 -49 -17 -91t-55 -73t-97.5 -49 t-145.5 -18h-602zM164 723z" />
<glyph unicode="&#xb4;" horiz-adv-x="804" d="M414 1464l28 170l635 142l-41 -232z" />
<glyph unicode="&#xb7;" horiz-adv-x="632" d="M203 494zM203 659q0 53 22.5 96.5t59 73t85 46t101.5 16.5q86 0 143.5 -45t57.5 -125q0 -53 -22.5 -96t-59.5 -72t-86 -44.5t-103 -15.5q-86 0 -142 44t-56 122z" />
<glyph unicode="&#xb8;" horiz-adv-x="610" d="M41 -522l82 459h315l-250 -459h-147zM43 -522l80 459h315l-248 -459h-147z" />
<glyph unicode="&#xb9;" horiz-adv-x="514" d="M256 723zM256 1228l158 179h252l-121 -684h-213l90 505h-166z" />
<glyph unicode="&#xba;" horiz-adv-x="1312" d="M266 872q0 248 165 362t462 114q246 0 368.5 -73t122.5 -233q0 -123 -44 -213t-124.5 -148t-197.5 -86t-262 -28q-246 0 -368 74t-122 231zM500 901q0 -84 69.5 -109.5t221.5 -25.5q92 0 159.5 9t111.5 36t65.5 76t21.5 127q0 86 -67.5 111.5t-223.5 25.5 q-94 0 -161.5 -9t-111.5 -37t-64.5 -76t-20.5 -128z" />
<glyph unicode="&#xbb;" horiz-adv-x="933" d="M152 324l34 190l258 152l-206 147l34 195l312 -256l-33 -187zM586 324l35 190l256 152l-205 147l35 195l309 -256l-33 -187z" />
<glyph unicode="&#xbc;" horiz-adv-x="1896" d="M150 0zM150 -78l1374 1524h172l-1360 -1524h-186zM301 1228l158 179h252l-121 -684h-213l90 505h-166zM889 137q0 23 13.5 50.5t45.5 50.5l566 401q29 23 56.5 30t47.5 7q39 0 67.5 -21.5t28.5 -70.5q0 -10 -1 -17.5t-3 -17.5l-55 -318h194l-153 -170h-72l-12 -79h-205 l14 79h-446q-41 0 -63.5 22.5t-22.5 53.5zM1213 227q23 2 50 3t66 1h121l21 101q4 33 9 52t9 36l-86 -64l-86 -61q-33 -23 -58.5 -39t-45.5 -29z" />
<glyph unicode="&#xbd;" horiz-adv-x="1945" d="M131 0zM131 -78l1374 1524h172l-1360 -1524h-186zM301 1228l158 179h252l-121 -684h-213l90 505h-166zM992 -18l39 221q16 96 89.5 142t200.5 46h326q37 0 59.5 13.5t22.5 46.5q0 37 -66 36h-552l165 179h402q141 0 201.5 -47.5t60.5 -124.5q0 -104 -75 -171t-222 -67 h-326q-74 0 -82 -51l-8 -47h662l-168 -176h-729z" />
<glyph unicode="&#xbe;" horiz-adv-x="2164" d="M211 0zM211 723l164 176h469q74 0 73 55q0 37 -57 37h-412l140 147h303q23 0 44 12.5t21 43.5q0 20 -15 27t-34 7h-573l166 179h428q113 0 176 -39t63 -117q0 -37 -11 -67.5t-29.5 -52t-40 -36t-40.5 -20.5q37 -12 59.5 -43t22.5 -78q0 -49 -17 -91t-55 -73t-97.5 -49 t-145.5 -18h-602zM455 -78l1374 1524h172l-1360 -1524h-186zM1157 137q0 23 13.5 50.5t45.5 50.5l566 401q29 23 56.5 30t47.5 7q39 0 67.5 -21.5t28.5 -70.5q0 -10 -1 -17.5t-3 -17.5l-55 -318h194l-153 -170h-72l-12 -79h-205l14 79h-446q-41 0 -63.5 22.5t-22.5 53.5z M1481 227q23 2 50 3t66 1h121l21 101q4 33 9 52t9 36l-86 -64l-86 -61q-33 -23 -58.5 -39t-45.5 -29z" />
<glyph unicode="&#xbf;" horiz-adv-x="1521" d="M121 0zM121 354q0 102 35.5 187.5t108.5 146.5t184.5 96t262.5 35h205q41 0 49 41h351l-7 -43q-25 -129 -109.5 -199.5t-260.5 -70.5h-236q-86 0 -125 -25.5t-39 -87.5q0 -43 33 -60.5t98 -17.5h889l-338 -356h-581q-274 0 -397 96t-123 258zM950 1165q0 53 22.5 96 t59.5 72t85 44.5t101 15.5q86 0 143.5 -44t57.5 -122q0 -53 -22.5 -96.5t-59.5 -73t-86 -46t-102 -16.5q-86 0 -142.5 45t-56.5 125z" />
<glyph unicode="&#xc0;" d="M23 0l1097 1239q53 59 127 106.5t174 47.5q96 0 152.5 -44t91.5 -110l637 -1239h-1593l319 352h342h129t115 -4q-23 37 -51.5 93.5t-53.5 105.5l-182 362l-803 -909h-501zM23 0zM1069 1544l41 232l586 -142l-29 -170z" />
<glyph unicode="&#xc1;" d="M23 0l1097 1239q53 59 127 106.5t174 47.5q96 0 152.5 -44t91.5 -110l637 -1239h-1593l319 352h342h129t115 -4q-23 37 -51.5 93.5t-53.5 105.5l-182 362l-803 -909h-501zM23 0zM1174 1464l28 170l635 142l-41 -232z" />
<glyph unicode="&#xc2;" d="M23 0l1097 1239q53 59 127 106.5t174 47.5q96 0 152.5 -44t91.5 -110l637 -1239h-1593l319 352h342h129t115 -4q-23 37 -51.5 93.5t-53.5 105.5l-182 362l-803 -909h-501zM23 0zM1093 1464l248 312h268l138 -312h-203l-78 207h-20l-148 -207h-205z" />
<glyph unicode="&#xc3;" d="M23 0l1097 1239q53 59 127 106.5t174 47.5q96 0 152.5 -44t91.5 -110l637 -1239h-1593l319 352h342h129t115 -4q-23 37 -51.5 93.5t-53.5 105.5l-182 362l-803 -909h-501zM23 0zM1120 1509l31 170q68 61 168 62q39 0 74 -13.5t66.5 -30t65.5 -29.5t75 -13q47 0 92 21.5 t78 52.5l-29 -168q-35 -35 -78 -48.5t-90 -13.5q-41 0 -74.5 13.5t-66.5 28.5t-68 28.5t-74 13.5q-47 0 -92 -21.5t-78 -52.5z" />
<glyph unicode="&#xc4;" d="M23 0l1097 1239q53 59 127 106.5t174 47.5q96 0 152.5 -44t91.5 -110l637 -1239h-1593l319 352h342h129t115 -4q-23 37 -51.5 93.5t-53.5 105.5l-182 362l-803 -909h-501zM23 0zM1083 1632q0 68 52.5 109t122.5 41q57 0 93 -29t36 -82q0 -72 -52.5 -109.5t-121.5 -37.5 q-57 0 -93.5 27.5t-36.5 80.5zM1516 1632q0 68 52 109t122 41q57 0 93 -29t36 -82q0 -72 -52.5 -109.5t-121.5 -37.5q-55 0 -92 27.5t-37 80.5z" />
<glyph unicode="&#xc5;" d="M23 0l1097 1239q53 59 127 106.5t174 47.5q96 0 152.5 -44t91.5 -110l637 -1239h-1593l319 352h342h129t115 -4q-23 37 -51.5 93.5t-53.5 105.5l-182 362l-803 -909h-501zM23 0zM1149 1595q0 10 1 19.5t3 19.5l25 129q14 86 69 129t172 43h166q186 0 186 -131 q0 -10 -1 -20t-3 -21l-22 -129q-31 -170 -242 -170h-168q-186 0 -186 131zM1315 1636q0 -27 33 -26h194q41 0 47 37l19 104q0 37 -35 37h-195q-39 0 -45 -37q-6 -41 -10 -62.5t-6 -32.5t-2 -14.5v-5.5z" />
<glyph unicode="&#xc6;" horiz-adv-x="2953" d="M23 0l1077 1214q53 61 126.5 108.5t172.5 47.5h1775l-338 -356h-886l-29 -164h1085l-296 -311h-844l-33 -187h1167l-336 -352h-1316l178 1014h-109l-893 -1014h-501z" />
<glyph unicode="&#xc7;" horiz-adv-x="1890" d="M199 586q0 172 76.5 316.5t206.5 248.5t303 161.5t366 57.5h963l-336 -356h-688q-92 0 -176.5 -29t-149 -81t-102 -122.5t-37.5 -154.5q0 -125 95 -200t253 -75h960l-334 -352h-688q-160 0 -292 43t-225 121t-144 185.5t-51 236.5zM817 -522l82 459h315l-249 -459h-148z " />
<glyph unicode="&#xc8;" horiz-adv-x="1736" d="M129 0l244 1370h1585l-338 -356h-887l-28 -164h1083l-295 -311h-844l-33 -187h1168l-336 -352h-1319zM129 0zM794 1544l41 232l586 -142l-29 -170z" />
<glyph unicode="&#xc9;" horiz-adv-x="1736" d="M129 0l244 1370h1585l-338 -356h-887l-28 -164h1083l-295 -311h-844l-33 -187h1168l-336 -352h-1319zM129 0zM860 1464l28 170l635 142l-41 -232z" />
<glyph unicode="&#xca;" horiz-adv-x="1736" d="M129 0l244 1370h1585l-338 -356h-887l-28 -164h1083l-295 -311h-844l-33 -187h1168l-336 -352h-1319zM129 0zM819 1464l248 312h268l138 -312h-203l-78 207h-20l-148 -207h-205z" />
<glyph unicode="&#xcb;" horiz-adv-x="1736" d="M129 0l244 1370h1585l-338 -356h-887l-28 -164h1083l-295 -311h-844l-33 -187h1168l-336 -352h-1319zM129 0zM782 1632q0 68 52.5 109t122.5 41q57 0 93 -29t36 -82q0 -72 -52.5 -109.5t-121.5 -37.5q-57 0 -93.5 27.5t-36.5 80.5zM1215 1632q0 68 52 109t122 41 q57 0 93 -29t36 -82q0 -72 -52.5 -109.5t-121.5 -37.5q-55 0 -92 27.5t-37 80.5z" />
<glyph unicode="&#xcc;" horiz-adv-x="694" d="M135 0l244 1370h422l-242 -1370h-424zM135 0zM258 1544l41 232l586 -142l-29 -170z" />
<glyph unicode="&#xcd;" horiz-adv-x="694" d="M135 0l244 1370h422l-242 -1370h-424zM135 0zM363 1464l28 170l635 142l-41 -232z" />
<glyph unicode="&#xce;" horiz-adv-x="694" d="M135 0l244 1370h422l-242 -1370h-424zM135 0zM280 1464l248 312h268l138 -312h-203l-78 207h-20l-148 -207h-205z" />
<glyph unicode="&#xcf;" horiz-adv-x="694" d="M135 0l244 1370h422l-242 -1370h-424zM135 0zM272 1632q0 68 52.5 109t122.5 41q57 0 93 -29t36 -82q0 -72 -52.5 -109.5t-121.5 -37.5q-57 0 -93.5 27.5t-36.5 80.5zM705 1632q0 68 52 109t122 41q57 0 93 -29t36 -82q0 -72 -52.5 -109.5t-121.5 -37.5q-55 0 -92 27.5 t-37 80.5z" />
<glyph unicode="&#xd0;" horiz-adv-x="2131" d="M94 539l297 311h981l-297 -311h-252l-32 -187h491q98 0 183 27t148.5 76t100.5 117.5t37 150.5q0 63 -25.5 116.5t-71.5 92.5t-111.5 60.5t-143.5 21.5h-916l332 356h649q162 0 294 -43t226.5 -120t145.5 -183t51 -236q0 -166 -76.5 -309t-207 -249.5t-305.5 -168 t-371 -61.5h-916l94 539h-305z" />
<glyph unicode="&#xd1;" horiz-adv-x="1871" d="M123 0l199 1137q12 68 38.5 117t64.5 79.5t83 45t92 14.5q39 0 78 -13.5t80 -60.5l706 -754l144 805h385l-203 -1134q-12 -68 -40 -117t-64.5 -81t-82 -46.5t-90.5 -14.5q-43 0 -78.5 13.5t-78.5 60.5l-707 754l-141 -805h-385zM123 0zM886 1509l31 170q68 61 168 62 q39 0 74 -13.5t66.5 -30t65.5 -29.5t75 -13q47 0 92 21.5t78 52.5l-29 -168q-35 -35 -78 -48.5t-90 -13.5q-41 0 -74.5 13.5t-66.5 28.5t-68 28.5t-74 13.5q-47 0 -92 -21.5t-78 -52.5z" />
<glyph unicode="&#xd2;" horiz-adv-x="2174" d="M193 0zM193 559q0 422 282.5 628t857.5 206q446 0 668.5 -140.5t222.5 -439.5q0 -422 -282.5 -629t-858.5 -207q-446 0 -668 141.5t-222 440.5zM618 600q0 -84 31 -135t94.5 -81t163 -40t238.5 -10q207 0 335 18.5t198.5 67.5t95 134t24.5 216q0 82 -29.5 134t-94 82 t-165 40t-239.5 10q-207 0 -334 -18.5t-197.5 -67.5t-95.5 -134t-25 -216zM993 1544l41 232l586 -142l-29 -170z" />
<glyph unicode="&#xd3;" horiz-adv-x="2174" d="M193 0zM193 559q0 422 282.5 628t857.5 206q446 0 668.5 -140.5t222.5 -439.5q0 -422 -282.5 -629t-858.5 -207q-446 0 -668 141.5t-222 440.5zM618 600q0 -84 31 -135t94.5 -81t163 -40t238.5 -10q207 0 335 18.5t198.5 67.5t95 134t24.5 216q0 82 -29.5 134t-94 82 t-165 40t-239.5 10q-207 0 -334 -18.5t-197.5 -67.5t-95.5 -134t-25 -216zM1098 1464l28 170l635 142l-41 -232z" />
<glyph unicode="&#xd4;" horiz-adv-x="2174" d="M193 0zM193 559q0 422 282.5 628t857.5 206q446 0 668.5 -140.5t222.5 -439.5q0 -422 -282.5 -629t-858.5 -207q-446 0 -668 141.5t-222 440.5zM618 600q0 -84 31 -135t94.5 -81t163 -40t238.5 -10q207 0 335 18.5t198.5 67.5t95 134t24.5 216q0 82 -29.5 134t-94 82 t-165 40t-239.5 10q-207 0 -334 -18.5t-197.5 -67.5t-95.5 -134t-25 -216zM1018 1464l248 312h268l138 -312h-203l-78 207h-20l-148 -207h-205z" />
<glyph unicode="&#xd5;" horiz-adv-x="2174" d="M193 0zM193 559q0 422 282.5 628t857.5 206q446 0 668.5 -140.5t222.5 -439.5q0 -422 -282.5 -629t-858.5 -207q-446 0 -668 141.5t-222 440.5zM618 600q0 -84 31 -135t94.5 -81t163 -40t238.5 -10q207 0 335 18.5t198.5 67.5t95 134t24.5 216q0 82 -29.5 134t-94 82 t-165 40t-239.5 10q-207 0 -334 -18.5t-197.5 -67.5t-95.5 -134t-25 -216zM1044 1509l31 170q68 61 168 62q39 0 74 -13.5t66.5 -30t65.5 -29.5t75 -13q47 0 92 21.5t78 52.5l-29 -168q-35 -35 -78 -48.5t-90 -13.5q-41 0 -74.5 13.5t-66.5 28.5t-68 28.5t-74 13.5 q-47 0 -92 -21.5t-78 -52.5z" />
<glyph unicode="&#xd6;" horiz-adv-x="2174" d="M193 0zM193 559q0 422 282.5 628t857.5 206q446 0 668.5 -140.5t222.5 -439.5q0 -422 -282.5 -629t-858.5 -207q-446 0 -668 141.5t-222 440.5zM618 600q0 -84 31 -135t94.5 -81t163 -40t238.5 -10q207 0 335 18.5t198.5 67.5t95 134t24.5 216q0 82 -29.5 134t-94 82 t-165 40t-239.5 10q-207 0 -334 -18.5t-197.5 -67.5t-95.5 -134t-25 -216zM1009 1632q0 68 52.5 109t122.5 41q57 0 93 -29t36 -82q0 -72 -52.5 -109.5t-121.5 -37.5q-57 0 -93.5 27.5t-36.5 80.5zM1442 1632q0 68 52 109t122 41q57 0 93 -29t36 -82q0 -72 -52.5 -109.5 t-121.5 -37.5q-55 0 -92 27.5t-37 80.5z" />
<glyph unicode="&#xd7;" horiz-adv-x="1288" d="M201 389l370 316l-258 315l191 160l258 -314l371 314l131 -162l-369 -313l260 -316l-192 -162l-258 316l-371 -314z" />
<glyph unicode="&#xd8;" horiz-adv-x="2174" d="M193 557q0 424 282.5 630t857.5 206q332 0 541 -74l180 147l90 -96l-139 -113q111 -68 165 -181t54 -263q0 -422 -282.5 -629t-858.5 -207q-170 0 -305 17.5t-239 58.5l-183 -149l-82 96l138 113q-111 68 -165 181.5t-54 262.5zM618 600q0 -166 121 -219l779 645 q-51 4 -114 7t-134 3q-207 0 -334 -18.5t-197.5 -67.5t-95.5 -134t-25 -216zM893 344q53 -6 115.5 -8t136.5 -2q207 0 335 18.5t198.5 67.5t95 134t24.5 216q0 164 -121 219z" />
<glyph unicode="&#xd9;" horiz-adv-x="2019" d="M203 0zM203 469q0 61 12 129l137 772h424l-139 -772q-6 -43 -6 -76q0 -53 22.5 -90t77.5 -59.5t147.5 -32.5t233.5 -10q123 0 208 14t140.5 47t85 84t41.5 123l137 772h426l-137 -772q-111 -621 -962 -621q-440 0 -644 123t-204 369zM915 1544l41 232l586 -142l-29 -170z " />
<glyph unicode="&#xda;" horiz-adv-x="2019" d="M203 0zM203 469q0 61 12 129l137 772h424l-139 -772q-6 -43 -6 -76q0 -53 22.5 -90t77.5 -59.5t147.5 -32.5t233.5 -10q123 0 208 14t140.5 47t85 84t41.5 123l137 772h426l-137 -772q-111 -621 -962 -621q-440 0 -644 123t-204 369zM1020 1464l28 170l635 142l-41 -232z " />
<glyph unicode="&#xdb;" horiz-adv-x="2019" d="M203 0zM203 469q0 61 12 129l137 772h424l-139 -772q-6 -43 -6 -76q0 -53 22.5 -90t77.5 -59.5t147.5 -32.5t233.5 -10q123 0 208 14t140.5 47t85 84t41.5 123l137 772h426l-137 -772q-111 -621 -962 -621q-440 0 -644 123t-204 369zM940 1464l248 312h268l138 -312h-203 l-78 207h-20l-148 -207h-205z" />
<glyph unicode="&#xdc;" horiz-adv-x="2019" d="M203 0zM203 469q0 61 12 129l137 772h424l-139 -772q-6 -43 -6 -76q0 -53 22.5 -90t77.5 -59.5t147.5 -32.5t233.5 -10q123 0 208 14t140.5 47t85 84t41.5 123l137 772h426l-137 -772q-111 -621 -962 -621q-440 0 -644 123t-204 369zM931 1632q0 68 52.5 109t122.5 41 q57 0 93 -29t36 -82q0 -72 -52.5 -109.5t-121.5 -37.5q-57 0 -93.5 27.5t-36.5 80.5zM1364 1632q0 68 52 109t122 41q57 0 93 -29t36 -82q0 -72 -52.5 -109.5t-121.5 -37.5q-55 0 -92 27.5t-37 80.5z" />
<glyph unicode="&#xdd;" horiz-adv-x="2105" d="M258 0zM258 1370h545l262 -381q12 -18 33.5 -48t44 -62.5t41 -61.5t26.5 -43q29 29 75 78t136 139l379 379h533l-977 -917l-78 -453h-426l80 455zM1055 1464l28 170l635 142l-41 -232z" />
<glyph unicode="&#xde;" horiz-adv-x="1961" d="M129 0l244 1370h422l-35 -192h659q143 0 254 -31t185.5 -88.5t113.5 -136t39 -177.5q0 -127 -54 -234.5t-153.5 -185t-242 -121.5t-320.5 -44h-561l346 356h317q111 0 173.5 49t62.5 129q0 61 -46 98t-136 37h-699l-145 -829h-424z" />
<glyph unicode="&#xdf;" horiz-adv-x="3946" d="M49 0l334 352h1038q86 0 125 29t39 88q0 82 -129 82h-747q-233 0 -342 90t-109 240q0 104 37 193t118 155.5t208 103.5t307 37h1190l-336 -356h-951q-86 0 -124.5 -25.5t-38.5 -87.5q0 -78 131 -78h745q223 0 339 -78.5t116 -232.5q0 -111 -37 -205t-118 -162.5 t-209 -106.5t-310 -38h-1276zM49 0zM2021 0l334 352h1038q86 0 125 29t39 88q0 82 -129 82h-747q-233 0 -342 90t-109 240q0 104 37 193t118 155.5t208 103.5t307 37h1190l-336 -356h-951q-86 0 -124.5 -25.5t-38.5 -87.5q0 -78 131 -78h745q223 0 339 -78.5t116 -232.5 q0 -111 -37 -205t-118 -162.5t-209 -106.5t-310 -38h-1276z" />
<glyph unicode="&#xe0;" d="M23 0l1097 1239q53 59 127 106.5t174 47.5q96 0 152.5 -44t91.5 -110l637 -1239h-1593l319 352h342h129t115 -4q-23 37 -51.5 93.5t-53.5 105.5l-182 362l-803 -909h-501zM23 0zM1069 1544l41 232l586 -142l-29 -170z" />
<glyph unicode="&#xe1;" d="M23 0l1097 1239q53 59 127 106.5t174 47.5q96 0 152.5 -44t91.5 -110l637 -1239h-1593l319 352h342h129t115 -4q-23 37 -51.5 93.5t-53.5 105.5l-182 362l-803 -909h-501zM23 0zM1174 1464l28 170l635 142l-41 -232z" />
<glyph unicode="&#xe2;" d="M23 0l1097 1239q53 59 127 106.5t174 47.5q96 0 152.5 -44t91.5 -110l637 -1239h-1593l319 352h342h129t115 -4q-23 37 -51.5 93.5t-53.5 105.5l-182 362l-803 -909h-501zM23 0zM1093 1464l248 312h268l138 -312h-203l-78 207h-20l-148 -207h-205z" />
<glyph unicode="&#xe3;" d="M23 0l1097 1239q53 59 127 106.5t174 47.5q96 0 152.5 -44t91.5 -110l637 -1239h-1593l319 352h342h129t115 -4q-23 37 -51.5 93.5t-53.5 105.5l-182 362l-803 -909h-501zM23 0zM1120 1509l31 170q68 61 168 62q39 0 74 -13.5t66.5 -30t65.5 -29.5t75 -13q47 0 92 21.5 t78 52.5l-29 -168q-35 -35 -78 -48.5t-90 -13.5q-41 0 -74.5 13.5t-66.5 28.5t-68 28.5t-74 13.5q-47 0 -92 -21.5t-78 -52.5z" />
<glyph unicode="&#xe4;" d="M23 0l1097 1239q53 59 127 106.5t174 47.5q96 0 152.5 -44t91.5 -110l637 -1239h-1593l319 352h342h129t115 -4q-23 37 -51.5 93.5t-53.5 105.5l-182 362l-803 -909h-501zM23 0zM1083 1632q0 68 52.5 109t122.5 41q57 0 93 -29t36 -82q0 -72 -52.5 -109.5t-121.5 -37.5 q-57 0 -93.5 27.5t-36.5 80.5zM1516 1632q0 68 52 109t122 41q57 0 93 -29t36 -82q0 -72 -52.5 -109.5t-121.5 -37.5q-55 0 -92 27.5t-37 80.5z" />
<glyph unicode="&#xe5;" d="M23 0l1097 1239q53 59 127 106.5t174 47.5q96 0 152.5 -44t91.5 -110l637 -1239h-1593l319 352h342h129t115 -4q-23 37 -51.5 93.5t-53.5 105.5l-182 362l-803 -909h-501zM23 0zM1149 1595q0 10 1 19.5t3 19.5l25 129q14 86 69 129t172 43h166q186 0 186 -131 q0 -10 -1 -20t-3 -21l-22 -129q-31 -170 -242 -170h-168q-186 0 -186 131zM1315 1636q0 -27 33 -26h194q41 0 47 37l19 104q0 37 -35 37h-195q-39 0 -45 -37q-6 -41 -10 -62.5t-6 -32.5t-2 -14.5v-5.5z" />
<glyph unicode="&#xe6;" horiz-adv-x="2953" d="M23 0l1077 1214q53 61 126.5 108.5t172.5 47.5h1775l-338 -356h-886l-29 -164h1085l-296 -311h-844l-33 -187h1167l-336 -352h-1316l178 1014h-109l-893 -1014h-501zM23 0z" />
<glyph unicode="&#xe7;" horiz-adv-x="1890" d="M199 0zM199 586q0 172 76.5 316.5t206.5 248.5t303 161.5t366 57.5h963l-336 -356h-688q-92 0 -176.5 -29t-149 -81t-102 -122.5t-37.5 -154.5q0 -125 95 -200t253 -75h960l-334 -352h-688q-160 0 -292 43t-225 121t-144 185.5t-51 236.5zM817 -522l82 459h315l-249 -459 h-148z" />
<glyph unicode="&#xe8;" horiz-adv-x="1736" d="M129 0l244 1370h1585l-338 -356h-887l-28 -164h1083l-295 -311h-844l-33 -187h1168l-336 -352h-1319zM129 0zM794 1544l41 232l586 -142l-29 -170z" />
<glyph unicode="&#xe9;" horiz-adv-x="1736" d="M129 0l244 1370h1585l-338 -356h-887l-28 -164h1083l-295 -311h-844l-33 -187h1168l-336 -352h-1319zM129 0zM860 1464l28 170l635 142l-41 -232z" />
<glyph unicode="&#xea;" horiz-adv-x="1736" d="M129 0l244 1370h1585l-338 -356h-887l-28 -164h1083l-295 -311h-844l-33 -187h1168l-336 -352h-1319zM129 0zM819 1464l248 312h268l138 -312h-203l-78 207h-20l-148 -207h-205z" />
<glyph unicode="&#xeb;" horiz-adv-x="1736" d="M129 0l244 1370h1585l-338 -356h-887l-28 -164h1083l-295 -311h-844l-33 -187h1168l-336 -352h-1319zM129 0zM782 1632q0 68 52.5 109t122.5 41q57 0 93 -29t36 -82q0 -72 -52.5 -109.5t-121.5 -37.5q-57 0 -93.5 27.5t-36.5 80.5zM1215 1632q0 68 52 109t122 41 q57 0 93 -29t36 -82q0 -72 -52.5 -109.5t-121.5 -37.5q-55 0 -92 27.5t-37 80.5z" />
<glyph unicode="&#xec;" horiz-adv-x="694" d="M135 0l244 1370h422l-242 -1370h-424zM135 0zM258 1544l41 232l586 -142l-29 -170z" />
<glyph unicode="&#xed;" horiz-adv-x="694" d="M135 0l244 1370h422l-242 -1370h-424zM135 0zM363 1464l28 170l635 142l-41 -232z" />
<glyph unicode="&#xee;" horiz-adv-x="694" d="M135 0l244 1370h422l-242 -1370h-424zM135 0zM280 1464l248 312h268l138 -312h-203l-78 207h-20l-148 -207h-205z" />
<glyph unicode="&#xef;" horiz-adv-x="694" d="M135 0l244 1370h422l-242 -1370h-424zM135 0zM272 1632q0 68 52.5 109t122.5 41q57 0 93 -29t36 -82q0 -72 -52.5 -109.5t-121.5 -37.5q-57 0 -93.5 27.5t-36.5 80.5zM705 1632q0 68 52 109t122 41q57 0 93 -29t36 -82q0 -72 -52.5 -109.5t-121.5 -37.5q-55 0 -92 27.5 t-37 80.5z" />
<glyph unicode="&#xf0;" horiz-adv-x="2131" d="M94 0zM94 539l297 311h981l-297 -311h-252l-32 -187h491q98 0 183 27t148.5 76t100.5 117.5t37 150.5q0 63 -25.5 116.5t-71.5 92.5t-111.5 60.5t-143.5 21.5h-916l332 356h649q162 0 294 -43t226.5 -120t145.5 -183t51 -236q0 -166 -76.5 -309t-207 -249.5t-305.5 -168 t-371 -61.5h-916l94 539h-305z" />
<glyph unicode="&#xf1;" horiz-adv-x="1871" d="M123 0l199 1137q12 68 38.5 117t64.5 79.5t83 45t92 14.5q39 0 78 -13.5t80 -60.5l706 -754l144 805h385l-203 -1134q-12 -68 -40 -117t-64.5 -81t-82 -46.5t-90.5 -14.5q-43 0 -78.5 13.5t-78.5 60.5l-707 754l-141 -805h-385zM123 0zM886 1509l31 170q68 61 168 62 q39 0 74 -13.5t66.5 -30t65.5 -29.5t75 -13q47 0 92 21.5t78 52.5l-29 -168q-35 -35 -78 -48.5t-90 -13.5q-41 0 -74.5 13.5t-66.5 28.5t-68 28.5t-74 13.5q-47 0 -92 -21.5t-78 -52.5z" />
<glyph unicode="&#xf2;" horiz-adv-x="2174" d="M193 0zM193 559q0 422 282.5 628t857.5 206q446 0 668.5 -140.5t222.5 -439.5q0 -422 -282.5 -629t-858.5 -207q-446 0 -668 141.5t-222 440.5zM618 600q0 -84 31 -135t94.5 -81t163 -40t238.5 -10q207 0 335 18.5t198.5 67.5t95 134t24.5 216q0 82 -29.5 134t-94 82 t-165 40t-239.5 10q-207 0 -334 -18.5t-197.5 -67.5t-95.5 -134t-25 -216zM993 1544l41 232l586 -142l-29 -170z" />
<glyph unicode="&#xf3;" horiz-adv-x="2174" d="M193 0zM193 559q0 422 282.5 628t857.5 206q446 0 668.5 -140.5t222.5 -439.5q0 -422 -282.5 -629t-858.5 -207q-446 0 -668 141.5t-222 440.5zM618 600q0 -84 31 -135t94.5 -81t163 -40t238.5 -10q207 0 335 18.5t198.5 67.5t95 134t24.5 216q0 82 -29.5 134t-94 82 t-165 40t-239.5 10q-207 0 -334 -18.5t-197.5 -67.5t-95.5 -134t-25 -216zM1098 1464l28 170l635 142l-41 -232z" />
<glyph unicode="&#xf4;" horiz-adv-x="2174" d="M193 0zM193 559q0 422 282.5 628t857.5 206q446 0 668.5 -140.5t222.5 -439.5q0 -422 -282.5 -629t-858.5 -207q-446 0 -668 141.5t-222 440.5zM618 600q0 -84 31 -135t94.5 -81t163 -40t238.5 -10q207 0 335 18.5t198.5 67.5t95 134t24.5 216q0 82 -29.5 134t-94 82 t-165 40t-239.5 10q-207 0 -334 -18.5t-197.5 -67.5t-95.5 -134t-25 -216zM1018 1464l248 312h268l138 -312h-203l-78 207h-20l-148 -207h-205z" />
<glyph unicode="&#xf5;" horiz-adv-x="2174" d="M193 0zM193 559q0 422 282.5 628t857.5 206q446 0 668.5 -140.5t222.5 -439.5q0 -422 -282.5 -629t-858.5 -207q-446 0 -668 141.5t-222 440.5zM618 600q0 -84 31 -135t94.5 -81t163 -40t238.5 -10q207 0 335 18.5t198.5 67.5t95 134t24.5 216q0 82 -29.5 134t-94 82 t-165 40t-239.5 10q-207 0 -334 -18.5t-197.5 -67.5t-95.5 -134t-25 -216zM1044 1509l31 170q68 61 168 62q39 0 74 -13.5t66.5 -30t65.5 -29.5t75 -13q47 0 92 21.5t78 52.5l-29 -168q-35 -35 -78 -48.5t-90 -13.5q-41 0 -74.5 13.5t-66.5 28.5t-68 28.5t-74 13.5 q-47 0 -92 -21.5t-78 -52.5z" />
<glyph unicode="&#xf6;" horiz-adv-x="2174" d="M193 0zM193 559q0 422 282.5 628t857.5 206q446 0 668.5 -140.5t222.5 -439.5q0 -422 -282.5 -629t-858.5 -207q-446 0 -668 141.5t-222 440.5zM618 600q0 -84 31 -135t94.5 -81t163 -40t238.5 -10q207 0 335 18.5t198.5 67.5t95 134t24.5 216q0 82 -29.5 134t-94 82 t-165 40t-239.5 10q-207 0 -334 -18.5t-197.5 -67.5t-95.5 -134t-25 -216zM1009 1632q0 68 52.5 109t122.5 41q57 0 93 -29t36 -82q0 -72 -52.5 -109.5t-121.5 -37.5q-57 0 -93.5 27.5t-36.5 80.5zM1442 1632q0 68 52 109t122 41q57 0 93 -29t36 -82q0 -72 -52.5 -109.5 t-121.5 -37.5q-55 0 -92 27.5t-37 80.5z" />
<glyph unicode="&#xf7;" horiz-adv-x="1288" d="M186 10zM186 582l41 229h1119l-41 -229h-1119zM445 176q0 53 22.5 96.5t59 73t85 46t101.5 16.5q86 0 143.5 -45t57.5 -125q0 -53 -22.5 -96t-59.5 -72t-86 -44.5t-103 -15.5q-86 0 -142 44t-56 122zM615 1140q0 53 22.5 96.5t59 73t85 46t101.5 16.5q86 0 143.5 -45 t57.5 -125q0 -53 -22.5 -96t-59.5 -72t-86 -44.5t-103 -15.5q-86 0 -142 44t-56 122z" />
<glyph unicode="&#xf8;" horiz-adv-x="2174" d="M193 0zM193 557q0 424 282.5 630t857.5 206q332 0 541 -74l180 147l90 -96l-139 -113q111 -68 165 -181t54 -263q0 -422 -282.5 -629t-858.5 -207q-170 0 -305 17.5t-239 58.5l-183 -149l-82 96l138 113q-111 68 -165 181.5t-54 262.5zM618 600q0 -166 121 -219l779 645 q-51 4 -114 7t-134 3q-207 0 -334 -18.5t-197.5 -67.5t-95.5 -134t-25 -216zM893 344q53 -6 115.5 -8t136.5 -2q207 0 335 18.5t198.5 67.5t95 134t24.5 216q0 164 -121 219z" />
<glyph unicode="&#xf9;" horiz-adv-x="2019" d="M203 0zM203 469q0 61 12 129l137 772h424l-139 -772q-6 -43 -6 -76q0 -53 22.5 -90t77.5 -59.5t147.5 -32.5t233.5 -10q123 0 208 14t140.5 47t85 84t41.5 123l137 772h426l-137 -772q-111 -621 -962 -621q-440 0 -644 123t-204 369zM915 1544l41 232l586 -142l-29 -170z " />
<glyph unicode="&#xfa;" horiz-adv-x="2019" d="M203 0zM203 469q0 61 12 129l137 772h424l-139 -772q-6 -43 -6 -76q0 -53 22.5 -90t77.5 -59.5t147.5 -32.5t233.5 -10q123 0 208 14t140.5 47t85 84t41.5 123l137 772h426l-137 -772q-111 -621 -962 -621q-440 0 -644 123t-204 369zM1020 1464l28 170l635 142l-41 -232z " />
<glyph unicode="&#xfb;" horiz-adv-x="2019" d="M203 0zM203 469q0 61 12 129l137 772h424l-139 -772q-6 -43 -6 -76q0 -53 22.5 -90t77.5 -59.5t147.5 -32.5t233.5 -10q123 0 208 14t140.5 47t85 84t41.5 123l137 772h426l-137 -772q-111 -621 -962 -621q-440 0 -644 123t-204 369zM940 1464l248 312h268l138 -312h-203 l-78 207h-20l-148 -207h-205z" />
<glyph unicode="&#xfc;" horiz-adv-x="2019" d="M203 0zM203 469q0 61 12 129l137 772h424l-139 -772q-6 -43 -6 -76q0 -53 22.5 -90t77.5 -59.5t147.5 -32.5t233.5 -10q123 0 208 14t140.5 47t85 84t41.5 123l137 772h426l-137 -772q-111 -621 -962 -621q-440 0 -644 123t-204 369zM931 1632q0 68 52.5 109t122.5 41 q57 0 93 -29t36 -82q0 -72 -52.5 -109.5t-121.5 -37.5q-57 0 -93.5 27.5t-36.5 80.5zM1364 1632q0 68 52 109t122 41q57 0 93 -29t36 -82q0 -72 -52.5 -109.5t-121.5 -37.5q-55 0 -92 27.5t-37 80.5z" />
<glyph unicode="&#xfd;" horiz-adv-x="2105" d="M258 0zM258 1370h545l262 -381q12 -18 33.5 -48t44 -62.5t41 -61.5t26.5 -43q29 29 75 78t136 139l379 379h533l-977 -917l-78 -453h-426l80 455zM1055 1464l28 170l635 142l-41 -232z" />
<glyph unicode="&#xfe;" horiz-adv-x="1961" d="M129 0l244 1370h422l-35 -192h659q143 0 254 -31t185.5 -88.5t113.5 -136t39 -177.5q0 -127 -54 -234.5t-153.5 -185t-242 -121.5t-320.5 -44h-561l346 356h317q111 0 173.5 49t62.5 129q0 61 -46 98t-136 37h-699l-145 -829h-424zM129 0z" />
<glyph unicode="&#xff;" horiz-adv-x="2105" d="M258 0zM258 1370h545l262 -381q12 -18 33.5 -48t44 -62.5t41 -61.5t26.5 -43q29 29 75 78t136 139l379 379h533l-977 -917l-78 -453h-426l80 455zM995 1632q0 68 52.5 109t122.5 41q57 0 93 -29t36 -82q0 -72 -52.5 -109.5t-121.5 -37.5q-57 0 -93.5 27.5t-36.5 80.5z M1428 1632q0 68 52 109t122 41q57 0 93 -29t36 -82q0 -72 -52.5 -109.5t-121.5 -37.5q-55 0 -92 27.5t-37 80.5z" />
<glyph unicode="&#x152;" horiz-adv-x="3084" d="M193 559q0 422 282.5 628t857.5 206q123 0 218.5 -6.5t166.5 -16.5h1587l-337 -356h-889l-29 -164h1085l-296 -311h-842l-33 -187h1165l-333 -352h-1319q-74 -10 -172.5 -16.5t-221.5 -6.5q-446 0 -668 141.5t-222 440.5zM618 600q0 -84 31 -135t94.5 -81t163 -40 t238.5 -10q129 0 227 8t170 31l111 624q-66 23 -160 31t-223 8q-207 0 -334 -18.5t-197.5 -67.5t-95.5 -134t-25 -216z" />
<glyph unicode="&#x153;" horiz-adv-x="3084" d="M193 0zM193 559q0 422 282.5 628t857.5 206q123 0 218.5 -6.5t166.5 -16.5h1587l-337 -356h-889l-29 -164h1085l-296 -311h-842l-33 -187h1165l-333 -352h-1319q-74 -10 -172.5 -16.5t-221.5 -6.5q-446 0 -668 141.5t-222 440.5zM618 600q0 -84 31 -135t94.5 -81t163 -40 t238.5 -10q129 0 227 8t170 31l111 624q-66 23 -160 31t-223 8q-207 0 -334 -18.5t-197.5 -67.5t-95.5 -134t-25 -216z" />
<glyph unicode="&#x178;" horiz-adv-x="2105" d="M258 0zM258 1370h545l262 -381q12 -18 33.5 -48t44 -62.5t41 -61.5t26.5 -43q29 29 75 78t136 139l379 379h533l-977 -917l-78 -453h-426l80 455zM995 1632q0 68 52.5 109t122.5 41q57 0 93 -29t36 -82q0 -72 -52.5 -109.5t-121.5 -37.5q-57 0 -93.5 27.5t-36.5 80.5z M1428 1632q0 68 52 109t122 41q57 0 93 -29t36 -82q0 -72 -52.5 -109.5t-121.5 -37.5q-55 0 -92 27.5t-37 80.5z" />
<glyph unicode="&#x2c6;" horiz-adv-x="847" d="M354 1464l248 312h268l138 -312h-203l-78 207h-20l-148 -207h-205z" />
<glyph unicode="&#x2dc;" horiz-adv-x="804" d="M360 1509l31 170q68 61 168 62q39 0 74 -13.5t66.5 -30t65.5 -29.5t75 -13q47 0 92 21.5t78 52.5l-29 -168q-35 -35 -78 -48.5t-90 -13.5q-41 0 -74.5 13.5t-66.5 28.5t-68 28.5t-74 13.5q-47 0 -92 -21.5t-78 -52.5z" />
<glyph unicode="&#x2000;" horiz-adv-x="967" />
<glyph unicode="&#x2001;" horiz-adv-x="1935" />
<glyph unicode="&#x2002;" horiz-adv-x="967" />
<glyph unicode="&#x2003;" horiz-adv-x="1935" />
<glyph unicode="&#x2004;" horiz-adv-x="645" />
<glyph unicode="&#x2005;" horiz-adv-x="483" />
<glyph unicode="&#x2006;" horiz-adv-x="322" />
<glyph unicode="&#x2007;" horiz-adv-x="322" />
<glyph unicode="&#x2008;" horiz-adv-x="241" />
<glyph unicode="&#x2009;" horiz-adv-x="387" />
<glyph unicode="&#x200a;" horiz-adv-x="107" />
<glyph unicode="&#x2010;" horiz-adv-x="950" d="M129 561l254 264h684l-254 -264h-684z" />
<glyph unicode="&#x2011;" horiz-adv-x="950" d="M129 561l254 264h684l-254 -264h-684z" />
<glyph unicode="&#x2012;" horiz-adv-x="950" d="M129 561l254 264h684l-254 -264h-684z" />
<glyph unicode="&#x2013;" horiz-adv-x="1280" d="M129 561l254 264h1014l-254 -264h-1014z" />
<glyph unicode="&#x2014;" horiz-adv-x="2054" d="M129 561l254 264h1790l-254 -264h-1790z" />
<glyph unicode="&#x2018;" horiz-adv-x="448" d="M276 1370h379l-96 -549h-178z" />
<glyph unicode="&#x2019;" horiz-adv-x="448" d="M180 821l96 549h379l-299 -549h-176z" />
<glyph unicode="&#x201a;" horiz-adv-x="448" d="M0 -197l96 549h379l-299 -549h-176z" />
<glyph unicode="&#x201c;" horiz-adv-x="913" d="M276 1370h379l-96 -549h-178zM741 1370h379l-96 -549h-176z" />
<glyph unicode="&#x201d;" horiz-adv-x="913" d="M180 821l96 549h379l-299 -549h-176zM645 821l96 549h379l-299 -549h-176z" />
<glyph unicode="&#x201e;" horiz-adv-x="913" d="M0 -197l96 549h379l-299 -549h-176zM465 -197l96 549h379l-299 -549h-176z" />
<glyph unicode="&#x2022;" horiz-adv-x="937" d="M238 686q0 72 27.5 135.5t74.5 110.5t111.5 74.5t136.5 27.5t135 -27.5t110.5 -74.5t75 -110.5t27.5 -135.5t-27.5 -135.5t-75 -110.5t-111 -74.5t-134.5 -27.5q-72 0 -136.5 27.5t-111.5 74.5t-74.5 110.5t-27.5 135.5z" />
<glyph unicode="&#x2026;" horiz-adv-x="3160" d="M113 0zM113 143q0 53 22.5 96.5t59 73t85 46t101.5 16.5q86 0 143.5 -45t57.5 -125q0 -53 -22.5 -96t-59.5 -72t-86 -44.5t-103 -15.5q-86 0 -142 44t-56 122zM1377 143q0 53 22.5 96.5t59 73t85 46t101.5 16.5q86 0 143.5 -45t57.5 -125q0 -53 -22.5 -96t-59.5 -72 t-86 -44.5t-103 -15.5q-86 0 -142 44t-56 122zM2640 143q0 53 22.5 96.5t59 73t85 46t101.5 16.5q86 0 143.5 -45t57.5 -125q0 -53 -22.5 -96t-59.5 -72t-86 -44.5t-103 -15.5q-86 0 -142 44t-56 122z" />
<glyph unicode="&#x202f;" horiz-adv-x="387" />
<glyph unicode="&#x2039;" horiz-adv-x="501" d="M160 565l33 187l401 256l-35 -195l-258 -147l205 -152l-33 -190z" />
<glyph unicode="&#x203a;" horiz-adv-x="501" d="M152 324l32 190l260 152l-208 147l34 195l314 -256l-33 -187z" />
<glyph unicode="&#x205f;" horiz-adv-x="483" />
<glyph unicode="&#x20ac;" horiz-adv-x="1820" d="M102 506l117 135h76q4 23 7 51.5t11 50.5h-168l117 138h98q53 111 142.5 202t205 154t253 98t286.5 35h768l-340 -356h-491q-104 0 -194.5 -36t-155.5 -97h712l-127 -138h-678q-8 -25 -15 -53t-7 -49h600l-129 -135h-442q39 -72 121.5 -113t197.5 -41h690l-334 -352h-417 q-147 0 -271.5 37t-215.5 103.5t-148.5 159.5t-71.5 206h-197z" />
<glyph unicode="&#x2122;" horiz-adv-x="1183" d="M264 1247v123h430v-123h-151v-450h-127v450h-152zM758 797v573h114l150 -362l147 362h113v-573h-125v215l-90 -215h-94l-88 213v-213h-127z" />
<glyph unicode="&#x25fc;" horiz-adv-x="1372" d="M0 0v1372h1372v-1372h-1372z" />
</font>
</defs>
</svg>
