<?xml version="1.0" standalone="no"?>
<!DOCTYPE svg PUBLIC "-//W3C//DTD SVG 1.1//EN" "http://www.w3.org/Graphics/SVG/1.1/DTD/svg11.dtd" >
<svg xmlns="http://www.w3.org/2000/svg" xmlns:xlink="http://www.w3.org/1999/xlink" version="1.1">
<metadata></metadata>
<defs>
<font id="digital_dismayregular" horiz-adv-x="900" >
<font-face units-per-em="2048" ascent="1638" descent="-410" />
<missing-glyph horiz-adv-x="508" />
<glyph unicode="&#xd;" horiz-adv-x="508" />
<glyph horiz-adv-x="0" />
<glyph horiz-adv-x="0" />
<glyph unicode=" "  horiz-adv-x="508" />
<glyph unicode="&#x09;" horiz-adv-x="508" />
<glyph unicode="&#xa0;" horiz-adv-x="508" />
<glyph unicode="!" d="M100 50l150 150h300l150 -150l-50 -50h-500zM600 850v300l150 150l50 -50v-500l-50 -50z" />
<glyph unicode="&#x22;" d="M0 750v500l50 50l150 -150v-300l-150 -150zM600 850v300l150 150l50 -50v-500l-50 -50z" />
<glyph unicode="$" horiz-adv-x="1600" d="M0 750v500l50 50l150 -150v-300l-150 -150zM100 50l150 150h300l150 -150l-50 -50h-500zM100 1350l50 50h500l50 -50l-150 -150h-300zM150 700l100 100h300l100 -100l-100 -100h-300zM650 200v400l100 100l100 -100v-400l-100 -100zM650 800v400l100 100l100 -100v-400 l-100 -100zM800 50l150 150h300l150 -150l-50 -50h-500zM800 1350l50 50h500l50 -50l-150 -150h-300zM850 700l100 100h300l100 -100l-100 -100h-300zM1300 250v300l150 150l50 -50v-500l-50 -50z" />
<glyph unicode="%" horiz-adv-x="1600" d="M0 150v500l50 50l150 -150v-300l-150 -150zM100 1350l50 50h500l50 -50l-150 -150h-300zM150 700l100 100h300l100 -100l-100 -100h-300zM800 50l150 150h300l150 -150l-50 -50h-500zM850 700l100 100h300l100 -100l-100 -100h-300zM1300 850v300l150 150l50 -50v-500 l-50 -50z" />
<glyph unicode="&#x26;" horiz-adv-x="1600" d="M0 150v500l50 50l150 -150v-300l-150 -150zM0 750v500l50 50l150 -150v-300l-150 -150zM100 50l150 150h300l150 -150l-50 -50h-500zM100 1350l50 50h500l50 -50l-150 -150h-300zM150 700l100 100h300l100 -100l-100 -100h-300zM650 200v400l100 100l100 -100v-400 l-100 -100zM650 800v400l100 100l100 -100v-400l-100 -100zM800 50l150 150h300l150 -150l-50 -50h-500zM850 700l100 100h300l100 -100l-100 -100h-300z" />
<glyph unicode="'" d="M600 850v300l150 150l50 -50v-500l-50 -50z" />
<glyph unicode="(" d="M0 150v500l50 50l150 -150v-300l-150 -150zM0 750v500l50 50l150 -150v-300l-150 -150zM100 50l150 150h300l150 -150l-50 -50h-500zM100 1350l50 50h500l50 -50l-150 -150h-300z" />
<glyph unicode=")" d="M100 50l150 150h300l150 -150l-50 -50h-500zM100 1350l50 50h500l50 -50l-150 -150h-300zM600 250v300l150 150l50 -50v-500l-50 -50zM600 850v300l150 150l50 -50v-500l-50 -50z" />
<glyph unicode="*" horiz-adv-x="1600" d="M150 700l100 100h300l100 -100l-100 -100h-300zM650 200v400l100 100l100 -100v-400l-100 -100zM650 800v400l100 100l100 -100v-400l-100 -100zM850 700l100 100h300l100 -100l-100 -100h-300z" />
<glyph unicode="+" horiz-adv-x="1600" d="M150 700l100 100h300l100 -100l-100 -100h-300zM650 200v400l100 100l100 -100v-400l-100 -100zM650 800v400l100 100l100 -100v-400l-100 -100zM850 700l100 100h300l100 -100l-100 -100h-300z" />
<glyph unicode="," d="M100 50l150 150h300l150 -150l-50 -50h-500zM600 250v300l150 150l50 -50v-500l-50 -50z" />
<glyph unicode="-" horiz-adv-x="1600" d="M150 700l100 100h300l100 -100l-100 -100h-300zM850 700l100 100h300l100 -100l-100 -100h-300z" />
<glyph unicode="." d="M100 50l150 150h300l150 -150l-50 -50h-500z" />
<glyph unicode="/" horiz-adv-x="1600" d="M0 150v500l50 50l150 -150v-300l-150 -150zM150 700l100 100h300l100 -100l-100 -100h-300zM850 700l100 100h300l100 -100l-100 -100h-300zM1300 850v300l150 150l50 -50v-500l-50 -50z" />
<glyph unicode="0" d="M0 150v500l50 50l150 -150v-300l-150 -150zM0 750v500l50 50l150 -150v-300l-150 -150zM100 50l150 150h300l150 -150l-50 -50h-500zM100 1350l50 50h500l50 -50l-150 -150h-300zM600 250v300l150 150l50 -50v-500l-50 -50zM600 850v300l150 150l50 -50v-500l-50 -50z " />
<glyph unicode="1" d="M600 250v300l150 150l50 -50v-500l-50 -50zM600 850v300l150 150l50 -50v-500l-50 -50z" />
<glyph unicode="2" d="M0 150v500l50 50l150 -150v-300l-150 -150zM100 50l150 150h300l150 -150l-50 -50h-500zM100 1350l50 50h500l50 -50l-150 -150h-300zM150 700l100 100h300l100 -100l-100 -100h-300zM600 850v300l150 150l50 -50v-500l-50 -50z" />
<glyph unicode="3" d="M100 50l150 150h300l150 -150l-50 -50h-500zM100 1350l50 50h500l50 -50l-150 -150h-300zM150 700l100 100h300l100 -100l-100 -100h-300zM600 250v300l150 150l50 -50v-500l-50 -50zM600 850v300l150 150l50 -50v-500l-50 -50z" />
<glyph unicode="4" d="M0 750v500l50 50l150 -150v-300l-150 -150zM150 700l100 100h300l100 -100l-100 -100h-300zM600 250v300l150 150l50 -50v-500l-50 -50zM600 850v300l150 150l50 -50v-500l-50 -50z" />
<glyph unicode="5" d="M0 750v500l50 50l150 -150v-300l-150 -150zM100 50l150 150h300l150 -150l-50 -50h-500zM100 1350l50 50h500l50 -50l-150 -150h-300zM150 700l100 100h300l100 -100l-100 -100h-300zM600 250v300l150 150l50 -50v-500l-50 -50z" />
<glyph unicode="6" d="M0 150v500l50 50l150 -150v-300l-150 -150zM0 750v500l50 50l150 -150v-300l-150 -150zM100 50l150 150h300l150 -150l-50 -50h-500zM100 1350l50 50h500l50 -50l-150 -150h-300zM150 700l100 100h300l100 -100l-100 -100h-300zM600 250v300l150 150l50 -50v-500l-50 -50 z" />
<glyph unicode="7" d="M0 750v500l50 50l150 -150v-300l-150 -150zM100 1350l50 50h500l50 -50l-150 -150h-300zM600 250v300l150 150l50 -50v-500l-50 -50zM600 850v300l150 150l50 -50v-500l-50 -50z" />
<glyph unicode="8" d="M0 150v500l50 50l150 -150v-300l-150 -150zM0 750v500l50 50l150 -150v-300l-150 -150zM100 50l150 150h300l150 -150l-50 -50h-500zM100 1350l50 50h500l50 -50l-150 -150h-300zM150 700l100 100h300l100 -100l-100 -100h-300zM600 250v300l150 150l50 -50v-500l-50 -50 zM600 850v300l150 150l50 -50v-500l-50 -50z" />
<glyph unicode="9" d="M0 750v500l50 50l150 -150v-300l-150 -150zM100 50l150 150h300l150 -150l-50 -50h-500zM100 1350l50 50h500l50 -50l-150 -150h-300zM150 700l100 100h300l100 -100l-100 -100h-300zM600 250v300l150 150l50 -50v-500l-50 -50zM600 850v300l150 150l50 -50v-500l-50 -50 z" />
<glyph unicode=":" d="M300 400q0 41 29.5 70.5t70.5 29.5t70.5 -29.5t29.5 -70.5t-29.5 -70.5t-70.5 -29.5t-70.5 29.5t-29.5 70.5zM300 1000q0 41 29.5 70.5t70.5 29.5t70.5 -29.5t29.5 -70.5t-29.5 -70.5t-70.5 -29.5t-70.5 29.5t-29.5 70.5z" />
<glyph unicode=";" d="M300 400q0 41 29.5 70.5t70.5 29.5t70.5 -29.5t29.5 -70.5t-29.5 -70.5t-70.5 -29.5t-70.5 29.5t-29.5 70.5zM300 1000q0 41 29.5 70.5t70.5 29.5t70.5 -29.5t29.5 -70.5t-29.5 -70.5t-70.5 -29.5t-70.5 29.5t-29.5 70.5z" />
<glyph unicode="&#x3c;" d="M150 700l100 100h300l100 -100l-100 -100h-300zM600 250v300l150 150l50 -50v-500l-50 -50zM600 850v300l150 150l50 -50v-500l-50 -50z" />
<glyph unicode="=" horiz-adv-x="1600" d="M100 50l150 150h300l150 -150l-50 -50h-500zM150 700l100 100h300l100 -100l-100 -100h-300zM800 50l150 150h300l150 -150l-50 -50h-500zM850 700l100 100h300l100 -100l-100 -100h-300z" />
<glyph unicode="&#x3e;" d="M0 150v500l50 50l150 -150v-300l-150 -150zM0 750v500l50 50l150 -150v-300l-150 -150zM150 700l100 100h300l100 -100l-100 -100h-300z" />
<glyph unicode="?" d="M100 50l150 150h300l150 -150l-50 -50h-500zM100 1350l50 50h500l50 -50l-150 -150h-300zM150 700l100 100h300l100 -100l-100 -100h-300zM600 850v300l150 150l50 -50v-500l-50 -50z" />
<glyph unicode="@" horiz-adv-x="1600" d="M0 150v500l50 50l150 -150v-300l-150 -150zM0 750v500l50 50l150 -150v-300l-150 -150zM100 50l150 150h300l150 -150l-50 -50h-500zM100 1350l50 50h500l50 -50l-150 -150h-300zM150 700l100 100h300l100 -100l-100 -100h-300zM800 50l150 150h300l150 -150l-50 -50 h-500zM800 1350l50 50h500l50 -50l-150 -150h-300zM850 700l100 100h300l100 -100l-100 -100h-300zM1300 250v300l150 150l50 -50v-500l-50 -50zM1300 850v300l150 150l50 -50v-500l-50 -50z" />
<glyph unicode="A" horiz-adv-x="1600" d="M0 150v500l50 50l150 -150v-300l-150 -150zM0 750v500l50 50l150 -150v-300l-150 -150zM100 1350l50 50h500l50 -50l-150 -150h-300zM150 700l100 100h300l100 -100l-100 -100h-300zM800 1350l50 50h500l50 -50l-150 -150h-300zM850 700l100 100h300l100 -100l-100 -100 h-300zM1300 250v300l150 150l50 -50v-500l-50 -50zM1300 850v300l150 150l50 -50v-500l-50 -50z" />
<glyph unicode="B" horiz-adv-x="1600" d="M0 150v500l50 50l150 -150v-300l-150 -150zM0 750v500l50 50l150 -150v-300l-150 -150zM100 50l150 150h300l150 -150l-50 -50h-500zM100 1350l50 50h500l50 -50l-150 -150h-300zM150 700l100 100h300l100 -100l-100 -100h-300zM650 800v400l100 100l100 -100v-400 l-100 -100zM800 50l150 150h300l150 -150l-50 -50h-500zM850 700l100 100h300l100 -100l-100 -100h-300zM1300 250v300l150 150l50 -50v-500l-50 -50z" />
<glyph unicode="C" horiz-adv-x="1600" d="M0 150v500l50 50l150 -150v-300l-150 -150zM0 750v500l50 50l150 -150v-300l-150 -150zM100 50l150 150h300l150 -150l-50 -50h-500zM100 1350l50 50h500l50 -50l-150 -150h-300zM800 50l150 150h300l150 -150l-50 -50h-500zM800 1350l50 50h500l50 -50l-150 -150h-300z " />
<glyph unicode="D" horiz-adv-x="1600" d="M0 150v500l50 50l150 -150v-300l-150 -150zM0 750v500l50 50l150 -150v-300l-150 -150zM100 50l150 150h300l150 -150l-50 -50h-500zM100 1350l50 50h500l50 -50l-150 -150h-300zM650 200v400l100 100l100 -100v-400l-100 -100zM800 1350l50 50h500l50 -50l-150 -150 h-300zM850 700l100 100h300l100 -100l-100 -100h-300zM1300 850v300l150 150l50 -50v-500l-50 -50z" />
<glyph unicode="E" horiz-adv-x="1600" d="M0 150v500l50 50l150 -150v-300l-150 -150zM0 750v500l50 50l150 -150v-300l-150 -150zM100 50l150 150h300l150 -150l-50 -50h-500zM100 1350l50 50h500l50 -50l-150 -150h-300zM150 700l100 100h300l100 -100l-100 -100h-300zM800 50l150 150h300l150 -150l-50 -50 h-500zM800 1350l50 50h500l50 -50l-150 -150h-300zM850 700l100 100h300l100 -100l-100 -100h-300z" />
<glyph unicode="F" horiz-adv-x="1600" d="M0 150v500l50 50l150 -150v-300l-150 -150zM0 750v500l50 50l150 -150v-300l-150 -150zM100 1350l50 50h500l50 -50l-150 -150h-300zM150 700l100 100h300l100 -100l-100 -100h-300zM800 1350l50 50h500l50 -50l-150 -150h-300zM850 700l100 100h300l100 -100l-100 -100 h-300z" />
<glyph unicode="G" horiz-adv-x="1600" d="M0 150v500l50 50l150 -150v-300l-150 -150zM0 750v500l50 50l150 -150v-300l-150 -150zM100 50l150 150h300l150 -150l-50 -50h-500zM100 1350l50 50h500l50 -50l-150 -150h-300zM800 50l150 150h300l150 -150l-50 -50h-500zM800 1350l50 50h500l50 -50l-150 -150h-300z M850 700l100 100h300l100 -100l-100 -100h-300zM1300 250v300l150 150l50 -50v-500l-50 -50z" />
<glyph unicode="H" horiz-adv-x="1600" d="M0 150v500l50 50l150 -150v-300l-150 -150zM0 750v500l50 50l150 -150v-300l-150 -150zM150 700l100 100h300l100 -100l-100 -100h-300zM850 700l100 100h300l100 -100l-100 -100h-300zM1300 250v300l150 150l50 -50v-500l-50 -50zM1300 850v300l150 150l50 -50v-500 l-50 -50z" />
<glyph unicode="I" horiz-adv-x="1600" d="M100 50l150 150h300l150 -150l-50 -50h-500zM100 1350l50 50h500l50 -50l-150 -150h-300zM650 200v400l100 100l100 -100v-400l-100 -100zM650 800v400l100 100l100 -100v-400l-100 -100zM800 50l150 150h300l150 -150l-50 -50h-500zM800 1350l50 50h500l50 -50 l-150 -150h-300z" />
<glyph unicode="J" horiz-adv-x="1600" d="M0 150v500l50 50l150 -150v-300l-150 -150zM100 50l150 150h300l150 -150l-50 -50h-500zM800 50l150 150h300l150 -150l-50 -50h-500zM800 1350l50 50h500l50 -50l-150 -150h-300zM1300 250v300l150 150l50 -50v-500l-50 -50zM1300 850v300l150 150l50 -50v-500l-50 -50z " />
<glyph unicode="K" horiz-adv-x="1600" d="M0 150v500l50 50l150 -150v-300l-150 -150zM0 750v500l50 50l150 -150v-300l-150 -150zM150 700l100 100h300l100 -100l-100 -100h-300zM650 200v400l100 100l100 -100v-400l-100 -100zM800 50l150 150h300l150 -150l-50 -50h-500zM850 700l100 100h300l100 -100 l-100 -100h-300zM1300 850v300l150 150l50 -50v-500l-50 -50z" />
<glyph unicode="L" horiz-adv-x="1600" d="M0 150v500l50 50l150 -150v-300l-150 -150zM0 750v500l50 50l150 -150v-300l-150 -150zM100 50l150 150h300l150 -150l-50 -50h-500zM800 50l150 150h300l150 -150l-50 -50h-500zM1300 250v300l150 150l50 -50v-500l-50 -50z" />
<glyph unicode="M" horiz-adv-x="1600" d="M0 150v500l50 50l150 -150v-300l-150 -150zM0 750v500l50 50l150 -150v-300l-150 -150zM100 1350l50 50h500l50 -50l-150 -150h-300zM650 200v400l100 100l100 -100v-400l-100 -100zM650 800v400l100 100l100 -100v-400l-100 -100zM800 1350l50 50h500l50 -50l-150 -150 h-300zM1300 250v300l150 150l50 -50v-500l-50 -50zM1300 850v300l150 150l50 -50v-500l-50 -50z" />
<glyph unicode="N" horiz-adv-x="1600" d="M0 150v500l50 50l150 -150v-300l-150 -150zM0 750v500l50 50l150 -150v-300l-150 -150zM100 1350l50 50h500l50 -50l-150 -150h-300zM650 200v400l100 100l100 -100v-400l-100 -100zM650 800v400l100 100l100 -100v-400l-100 -100zM800 50l150 150h300l150 -150l-50 -50 h-500zM1300 250v300l150 150l50 -50v-500l-50 -50zM1300 850v300l150 150l50 -50v-500l-50 -50z" />
<glyph unicode="O" horiz-adv-x="1600" d="M0 150v500l50 50l150 -150v-300l-150 -150zM0 750v500l50 50l150 -150v-300l-150 -150zM100 50l150 150h300l150 -150l-50 -50h-500zM100 1350l50 50h500l50 -50l-150 -150h-300zM800 50l150 150h300l150 -150l-50 -50h-500zM800 1350l50 50h500l50 -50l-150 -150h-300z M1300 250v300l150 150l50 -50v-500l-50 -50zM1300 850v300l150 150l50 -50v-500l-50 -50z" />
<glyph unicode="P" horiz-adv-x="1600" d="M0 150v500l50 50l150 -150v-300l-150 -150zM0 750v500l50 50l150 -150v-300l-150 -150zM100 1350l50 50h500l50 -50l-150 -150h-300zM150 700l100 100h300l100 -100l-100 -100h-300zM800 1350l50 50h500l50 -50l-150 -150h-300zM850 700l100 100h300l100 -100l-100 -100 h-300zM1300 850v300l150 150l50 -50v-500l-50 -50z" />
<glyph unicode="Q" horiz-adv-x="1600" d="M0 150v500l50 50l150 -150v-300l-150 -150zM0 750v500l50 50l150 -150v-300l-150 -150zM100 50l150 150h300l150 -150l-50 -50h-500zM100 1350l50 50h500l50 -50l-150 -150h-300zM650 200v400l100 100l100 -100v-400l-100 -100zM800 50l150 150h300l150 -150l-50 -50 h-500zM800 1350l50 50h500l50 -50l-150 -150h-300zM1300 250v300l150 150l50 -50v-500l-50 -50zM1300 850v300l150 150l50 -50v-500l-50 -50z" />
<glyph unicode="R" horiz-adv-x="1600" d="M0 150v500l50 50l150 -150v-300l-150 -150zM0 750v500l50 50l150 -150v-300l-150 -150zM100 1350l50 50h500l50 -50l-150 -150h-300zM150 700l100 100h300l100 -100l-100 -100h-300zM650 200v400l100 100l100 -100v-400l-100 -100zM800 50l150 150h300l150 -150l-50 -50 h-500zM800 1350l50 50h500l50 -50l-150 -150h-300zM850 700l100 100h300l100 -100l-100 -100h-300zM1300 850v300l150 150l50 -50v-500l-50 -50z" />
<glyph unicode="S" horiz-adv-x="1600" d="M0 750v500l50 50l150 -150v-300l-150 -150zM100 50l150 150h300l150 -150l-50 -50h-500zM100 1350l50 50h500l50 -50l-150 -150h-300zM150 700l100 100h300l100 -100l-100 -100h-300zM800 50l150 150h300l150 -150l-50 -50h-500zM800 1350l50 50h500l50 -50l-150 -150 h-300zM850 700l100 100h300l100 -100l-100 -100h-300zM1300 250v300l150 150l50 -50v-500l-50 -50z" />
<glyph unicode="T" horiz-adv-x="1600" d="M100 1350l50 50h500l50 -50l-150 -150h-300zM650 200v400l100 100l100 -100v-400l-100 -100zM650 800v400l100 100l100 -100v-400l-100 -100zM800 1350l50 50h500l50 -50l-150 -150h-300z" />
<glyph unicode="U" horiz-adv-x="1600" d="M0 150v500l50 50l150 -150v-300l-150 -150zM0 750v500l50 50l150 -150v-300l-150 -150zM100 50l150 150h300l150 -150l-50 -50h-500zM800 50l150 150h300l150 -150l-50 -50h-500zM1300 250v300l150 150l50 -50v-500l-50 -50zM1300 850v300l150 150l50 -50v-500l-50 -50z " />
<glyph unicode="V" horiz-adv-x="1600" d="M0 150v500l50 50l150 -150v-300l-150 -150zM0 750v500l50 50l150 -150v-300l-150 -150zM100 50l150 150h300l150 -150l-50 -50h-500zM650 200v400l100 100l100 -100v-400l-100 -100zM850 700l100 100h300l100 -100l-100 -100h-300zM1300 850v300l150 150l50 -50v-500 l-50 -50z" />
<glyph unicode="W" horiz-adv-x="1600" d="M0 150v500l50 50l150 -150v-300l-150 -150zM0 750v500l50 50l150 -150v-300l-150 -150zM100 50l150 150h300l150 -150l-50 -50h-500zM650 200v400l100 100l100 -100v-400l-100 -100zM650 800v400l100 100l100 -100v-400l-100 -100zM800 50l150 150h300l150 -150l-50 -50 h-500zM1300 250v300l150 150l50 -50v-500l-50 -50zM1300 850v300l150 150l50 -50v-500l-50 -50z" />
<glyph unicode="X" horiz-adv-x="1600" d="M0 750v500l50 50l150 -150v-300l-150 -150zM150 700l100 100h300l100 -100l-100 -100h-300zM650 200v400l100 100l100 -100v-400l-100 -100zM650 800v400l100 100l100 -100v-400l-100 -100zM850 700l100 100h300l100 -100l-100 -100h-300zM1300 250v300l150 150l50 -50 v-500l-50 -50z" />
<glyph unicode="Y" horiz-adv-x="1600" d="M0 750v500l50 50l150 -150v-300l-150 -150zM100 50l150 150h300l150 -150l-50 -50h-500zM150 700l100 100h300l100 -100l-100 -100h-300zM800 50l150 150h300l150 -150l-50 -50h-500zM850 700l100 100h300l100 -100l-100 -100h-300zM1300 250v300l150 150l50 -50v-500 l-50 -50zM1300 850v300l150 150l50 -50v-500l-50 -50z" />
<glyph unicode="Z" horiz-adv-x="1600" d="M0 150v500l50 50l150 -150v-300l-150 -150zM100 50l150 150h300l150 -150l-50 -50h-500zM100 1350l50 50h500l50 -50l-150 -150h-300zM150 700l100 100h300l100 -100l-100 -100h-300zM800 50l150 150h300l150 -150l-50 -50h-500zM800 1350l50 50h500l50 -50l-150 -150 h-300zM850 700l100 100h300l100 -100l-100 -100h-300zM1300 850v300l150 150l50 -50v-500l-50 -50z" />
<glyph unicode="[" d="M0 150v500l50 50l150 -150v-300l-150 -150zM0 750v500l50 50l150 -150v-300l-150 -150zM100 50l150 150h300l150 -150l-50 -50h-500zM100 1350l50 50h500l50 -50l-150 -150h-300z" />
<glyph unicode="\" horiz-adv-x="1600" d="M0 750v500l50 50l150 -150v-300l-150 -150zM150 700l100 100h300l100 -100l-100 -100h-300zM850 700l100 100h300l100 -100l-100 -100h-300zM1300 250v300l150 150l50 -50v-500l-50 -50z" />
<glyph unicode="]" d="M100 50l150 150h300l150 -150l-50 -50h-500zM100 1350l50 50h500l50 -50l-150 -150h-300zM600 250v300l150 150l50 -50v-500l-50 -50zM600 850v300l150 150l50 -50v-500l-50 -50z" />
<glyph unicode="_" horiz-adv-x="1600" d="M100 50l150 150h300l150 -150l-50 -50h-500zM800 50l150 150h300l150 -150l-50 -50h-500z" />
<glyph unicode="`" d="M600 850v300l150 150l50 -50v-500l-50 -50z" />
<glyph unicode="a" d="M0 150v500l50 50l150 -150v-300l-150 -150zM0 750v500l50 50l150 -150v-300l-150 -150zM100 1350l50 50h500l50 -50l-150 -150h-300zM150 700l100 100h300l100 -100l-100 -100h-300zM600 250v300l150 150l50 -50v-500l-50 -50zM600 850v300l150 150l50 -50v-500l-50 -50z " />
<glyph unicode="b" d="M0 150v500l50 50l150 -150v-300l-150 -150zM0 750v500l50 50l150 -150v-300l-150 -150zM100 50l150 150h300l150 -150l-50 -50h-500zM100 1350l50 50h500l50 -50l-150 -150h-300zM150 700l100 100h300l100 -100l-100 -100h-300zM600 250v300l150 150l50 -50v-500l-50 -50 zM600 850v300l150 150l50 -50v-500l-50 -50z" />
<glyph unicode="c" d="M0 150v500l50 50l150 -150v-300l-150 -150zM0 750v500l50 50l150 -150v-300l-150 -150zM100 50l150 150h300l150 -150l-50 -50h-500zM100 1350l50 50h500l50 -50l-150 -150h-300z" />
<glyph unicode="d" d="M100 50l150 150h300l150 -150l-50 -50h-500zM100 1350l50 50h500l50 -50l-150 -150h-300zM600 250v300l150 150l50 -50v-500l-50 -50zM600 850v300l150 150l50 -50v-500l-50 -50z" />
<glyph unicode="e" d="M0 150v500l50 50l150 -150v-300l-150 -150zM0 750v500l50 50l150 -150v-300l-150 -150zM100 50l150 150h300l150 -150l-50 -50h-500zM100 1350l50 50h500l50 -50l-150 -150h-300zM150 700l100 100h300l100 -100l-100 -100h-300z" />
<glyph unicode="f" d="M0 150v500l50 50l150 -150v-300l-150 -150zM0 750v500l50 50l150 -150v-300l-150 -150zM100 1350l50 50h500l50 -50l-150 -150h-300zM150 700l100 100h300l100 -100l-100 -100h-300z" />
<glyph unicode="g" d="M0 150v500l50 50l150 -150v-300l-150 -150zM0 750v500l50 50l150 -150v-300l-150 -150zM100 50l150 150h300l150 -150l-50 -50h-500zM100 1350l50 50h500l50 -50l-150 -150h-300zM600 250v300l150 150l50 -50v-500l-50 -50z" />
<glyph unicode="h" d="M0 150v500l50 50l150 -150v-300l-150 -150zM0 750v500l50 50l150 -150v-300l-150 -150zM150 700l100 100h300l100 -100l-100 -100h-300zM600 250v300l150 150l50 -50v-500l-50 -50zM600 850v300l150 150l50 -50v-500l-50 -50z" />
<glyph unicode="i" d="M600 250v300l150 150l50 -50v-500l-50 -50zM600 850v300l150 150l50 -50v-500l-50 -50z" />
<glyph unicode="j" d="M0 150v500l50 50l150 -150v-300l-150 -150zM100 50l150 150h300l150 -150l-50 -50h-500zM600 250v300l150 150l50 -50v-500l-50 -50zM600 850v300l150 150l50 -50v-500l-50 -50z" />
<glyph unicode="k" d="M0 150v500l50 50l150 -150v-300l-150 -150zM0 750v500l50 50l150 -150v-300l-150 -150zM100 50l150 150h300l150 -150l-50 -50h-500zM150 700l100 100h300l100 -100l-100 -100h-300zM600 850v300l150 150l50 -50v-500l-50 -50z" />
<glyph unicode="l" d="M0 150v500l50 50l150 -150v-300l-150 -150zM0 750v500l50 50l150 -150v-300l-150 -150zM100 50l150 150h300l150 -150l-50 -50h-500zM600 250v300l150 150l50 -50v-500l-50 -50z" />
<glyph unicode="m" d="M0 150v500l50 50l150 -150v-300l-150 -150zM0 750v500l50 50l150 -150v-300l-150 -150zM100 1350l50 50h500l50 -50l-150 -150h-300zM600 250v300l150 150l50 -50v-500l-50 -50zM600 850v300l150 150l50 -50v-500l-50 -50z" />
<glyph unicode="n" d="M0 150v500l50 50l150 -150v-300l-150 -150zM0 750v500l50 50l150 -150v-300l-150 -150zM100 1350l50 50h500l50 -50l-150 -150h-300zM600 250v300l150 150l50 -50v-500l-50 -50zM600 850v300l150 150l50 -50v-500l-50 -50z" />
<glyph unicode="o" d="M0 150v500l50 50l150 -150v-300l-150 -150zM0 750v500l50 50l150 -150v-300l-150 -150zM100 50l150 150h300l150 -150l-50 -50h-500zM100 1350l50 50h500l50 -50l-150 -150h-300zM600 250v300l150 150l50 -50v-500l-50 -50zM600 850v300l150 150l50 -50v-500l-50 -50z " />
<glyph unicode="p" d="M0 150v500l50 50l150 -150v-300l-150 -150zM0 750v500l50 50l150 -150v-300l-150 -150zM100 1350l50 50h500l50 -50l-150 -150h-300zM150 700l100 100h300l100 -100l-100 -100h-300zM600 850v300l150 150l50 -50v-500l-50 -50z" />
<glyph unicode="q" d="M0 750v500l50 50l150 -150v-300l-150 -150zM100 1350l50 50h500l50 -50l-150 -150h-300zM150 700l100 100h300l100 -100l-100 -100h-300zM600 250v300l150 150l50 -50v-500l-50 -50zM600 850v300l150 150l50 -50v-500l-50 -50z" />
<glyph unicode="r" d="M0 150v500l50 50l150 -150v-300l-150 -150zM0 750v500l50 50l150 -150v-300l-150 -150zM100 1350l50 50h500l50 -50l-150 -150h-300zM600 850v300l150 150l50 -50v-500l-50 -50z" />
<glyph unicode="s" d="M0 750v500l50 50l150 -150v-300l-150 -150zM100 50l150 150h300l150 -150l-50 -50h-500zM100 1350l50 50h500l50 -50l-150 -150h-300zM150 700l100 100h300l100 -100l-100 -100h-300zM600 250v300l150 150l50 -50v-500l-50 -50z" />
<glyph unicode="t" d="M100 1350l50 50h500l50 -50l-150 -150h-300zM600 250v300l150 150l50 -50v-500l-50 -50zM600 850v300l150 150l50 -50v-500l-50 -50z" />
<glyph unicode="u" d="M0 150v500l50 50l150 -150v-300l-150 -150zM0 750v500l50 50l150 -150v-300l-150 -150zM100 50l150 150h300l150 -150l-50 -50h-500zM600 250v300l150 150l50 -50v-500l-50 -50zM600 850v300l150 150l50 -50v-500l-50 -50z" />
<glyph unicode="v" d="M0 150v500l50 50l150 -150v-300l-150 -150zM0 750v500l50 50l150 -150v-300l-150 -150zM150 700l100 100h300l100 -100l-100 -100h-300zM600 850v300l150 150l50 -50v-500l-50 -50z" />
<glyph unicode="w" d="M0 150v500l50 50l150 -150v-300l-150 -150zM0 750v500l50 50l150 -150v-300l-150 -150zM100 50l150 150h300l150 -150l-50 -50h-500zM150 700l100 100h300l100 -100l-100 -100h-300zM600 250v300l150 150l50 -50v-500l-50 -50zM600 850v300l150 150l50 -50v-500l-50 -50z " />
<glyph unicode="x" d="M0 150v500l50 50l150 -150v-300l-150 -150zM0 750v500l50 50l150 -150v-300l-150 -150zM150 700l100 100h300l100 -100l-100 -100h-300zM600 250v300l150 150l50 -50v-500l-50 -50zM600 850v300l150 150l50 -50v-500l-50 -50z" />
<glyph unicode="y" d="M0 750v500l50 50l150 -150v-300l-150 -150zM100 50l150 150h300l150 -150l-50 -50h-500zM150 700l100 100h300l100 -100l-100 -100h-300zM600 250v300l150 150l50 -50v-500l-50 -50zM600 850v300l150 150l50 -50v-500l-50 -50z" />
<glyph unicode="z" d="M0 150v500l50 50l150 -150v-300l-150 -150zM100 50l150 150h300l150 -150l-50 -50h-500zM100 1350l50 50h500l50 -50l-150 -150h-300zM150 700l100 100h300l100 -100l-100 -100h-300zM600 850v300l150 150l50 -50v-500l-50 -50z" />
<glyph unicode="{" d="M0 150v500l50 50l150 -150v-300l-150 -150zM0 750v500l50 50l150 -150v-300l-150 -150zM100 50l150 150h300l150 -150l-50 -50h-500zM100 1350l50 50h500l50 -50l-150 -150h-300z" />
<glyph unicode="|" d="M600 250v300l150 150l50 -50v-500l-50 -50zM600 850v300l150 150l50 -50v-500l-50 -50z" />
<glyph unicode="}" d="M100 50l150 150h300l150 -150l-50 -50h-500zM100 1350l50 50h500l50 -50l-150 -150h-300zM600 250v300l150 150l50 -50v-500l-50 -50zM600 850v300l150 150l50 -50v-500l-50 -50z" />
<glyph unicode="&#xad;" horiz-adv-x="1600" d="M150 700l100 100h300l100 -100l-100 -100h-300zM850 700l100 100h300l100 -100l-100 -100h-300z" />
<glyph unicode="&#x2000;" horiz-adv-x="700" />
<glyph unicode="&#x2001;" horiz-adv-x="1400" />
<glyph unicode="&#x2002;" horiz-adv-x="700" />
<glyph unicode="&#x2003;" horiz-adv-x="1400" />
<glyph unicode="&#x2004;" horiz-adv-x="466" />
<glyph unicode="&#x2005;" horiz-adv-x="350" />
<glyph unicode="&#x2006;" horiz-adv-x="233" />
<glyph unicode="&#x2007;" horiz-adv-x="233" />
<glyph unicode="&#x2008;" horiz-adv-x="175" />
<glyph unicode="&#x2009;" horiz-adv-x="280" />
<glyph unicode="&#x200a;" horiz-adv-x="77" />
<glyph unicode="&#x2010;" horiz-adv-x="1600" d="M150 700l100 100h300l100 -100l-100 -100h-300zM850 700l100 100h300l100 -100l-100 -100h-300z" />
<glyph unicode="&#x2011;" horiz-adv-x="1600" d="M150 700l100 100h300l100 -100l-100 -100h-300zM850 700l100 100h300l100 -100l-100 -100h-300z" />
<glyph unicode="&#x2012;" horiz-adv-x="1600" d="M150 700l100 100h300l100 -100l-100 -100h-300zM850 700l100 100h300l100 -100l-100 -100h-300z" />
<glyph unicode="&#x2013;" horiz-adv-x="1424" d="M150 700l85 100h256l86 -100l-86 -100h-256zM747 700l86 100h256l85 -100l-85 -100h-256z" />
<glyph unicode="&#x2014;" horiz-adv-x="2448" d="M150 700l171 100h512l170 -100l-170 -100h-512zM1345 700l170 100h512l171 -100l-171 -100h-512z" />
<glyph unicode="&#x202f;" horiz-adv-x="280" />
<glyph unicode="&#x205f;" horiz-adv-x="350" />
<glyph unicode="&#x25fc;" horiz-adv-x="1300" d="M0 0v1300h1300v-1300h-1300z" />
</font>
</defs>
</svg>
